<svg width="269" height="250" viewBox="0 0 269 250" fill="none" xmlns="http://www.w3.org/2000/svg">
<path d="M218.574 223.055C218.574 223.055 267.411 227.836 259.534 204.042C255.786 192.742 238.076 204.096 236.283 205.183C236.283 205.183 187.772 219.796 218.574 223.055Z" fill="#9270F4"/>
<path d="M228.134 225.554C222.593 225.554 218.573 225.174 218.356 225.174C214.662 224.794 211.946 224.25 210.045 223.49C207.654 222.566 206.405 221.208 206.242 219.47C205.97 216.591 209.067 214.363 211.403 212.951C213.793 211.484 217.161 209.909 221.344 208.225C227.7 205.671 234.001 203.716 235.414 203.281C240.466 200.13 249.701 195.296 256.111 197.577C258.719 198.501 260.566 200.511 261.544 203.39C262.413 206.052 262.685 208.496 262.413 210.778C262.087 212.951 261.272 214.907 259.86 216.645C255.894 221.588 247.637 224.522 235.305 225.337C232.752 225.5 230.307 225.554 228.134 225.554ZM218.736 220.937C219.008 220.991 226.559 221.643 235.034 221.1C245.953 220.339 253.341 217.894 256.492 213.983C258.393 211.593 258.719 208.551 257.47 204.748C256.926 203.064 256.003 202.086 254.645 201.597C252.472 200.837 249.104 201.326 244.921 203.064C242.53 204.042 240.031 205.346 237.478 206.975L237.37 207.03C237.207 207.138 237.044 207.193 236.826 207.247C236.772 207.247 230.253 209.257 223.626 211.81C213.141 215.939 210.914 218.275 210.479 218.981C211.022 219.361 212.815 220.285 218.736 220.937Z" fill="#1C1C1C"/>
<path d="M86.1854 220.665L74.9403 216.482C65.4335 223.11 67.6608 239.189 70.377 244.079C74.56 251.521 85.5878 246.741 83.1975 240.222C81.0246 233.757 81.4592 225.065 86.1854 220.665Z" fill="#9270F4"/>
<path d="M76.5701 250C75.7552 250 74.9947 249.891 74.2341 249.728C71.7895 249.076 69.8339 247.501 68.4758 245.165C67.6609 243.698 66.9547 241.525 66.4658 239.081C65.9768 236.419 65.7596 233.54 65.9225 230.823C66.0855 227.564 66.7374 224.631 67.8782 222.077C69.2363 218.981 71.192 216.536 73.7452 214.744C74.723 214.092 76.0268 214.309 76.733 215.287C77.3849 216.265 77.1676 217.568 76.1898 218.275C73.6909 220.013 70.6487 223.653 70.2141 231.095C69.9968 234.789 70.6487 240.276 72.2241 243.101C74.0712 246.415 77.3306 245.98 78.9603 245.274C79.8838 244.839 80.6444 244.187 81.079 243.427C81.4592 242.666 81.5136 241.906 81.2419 241.036V240.982C80.0468 237.288 79.6122 233.214 80.0468 229.465C80.5901 225.119 82.2198 221.588 84.773 219.144C85.6422 218.329 87.0003 218.383 87.7609 219.252C88.5757 220.122 88.5214 221.48 87.6522 222.24C86.4027 223.435 84.773 225.771 84.2298 229.954C83.8495 233.051 84.2298 236.582 85.2076 239.624C85.9138 241.58 85.7509 243.644 84.773 245.437C83.9582 247.012 82.4914 248.316 80.6987 249.131C79.3949 249.674 77.9825 250 76.5701 250Z" fill="#1C1C1C"/>
<path d="M76.2984 223.544C74.886 222.566 69.8338 229.465 73.5279 240.167C73.8538 241.308 76.2441 241.634 75.5379 238.755C74.56 234.844 73.8538 232.779 74.886 228.27C75.8638 223.979 77.3306 224.25 76.2984 223.544Z" fill="white"/>
<path d="M195.051 220.665L183.806 216.482C174.299 223.11 176.527 239.189 179.243 244.079C183.426 251.521 194.454 246.741 192.063 240.222C189.945 233.757 190.379 225.065 195.051 220.665Z" fill="#9270F4"/>
<path d="M185.49 250C184.675 250 183.915 249.891 183.154 249.728C180.71 249.076 178.7 247.501 177.396 245.165C176.581 243.698 175.875 241.525 175.386 239.081C174.897 236.419 174.68 233.54 174.843 230.823C175.006 227.564 175.657 224.631 176.798 222.077C178.156 218.981 180.112 216.536 182.665 214.744C183.643 214.092 184.947 214.309 185.653 215.287C186.305 216.265 186.088 217.568 185.11 218.275C182.611 220.013 179.569 223.653 179.134 231.095C178.917 234.789 179.569 240.276 181.144 243.101C182.991 246.415 186.251 245.98 187.88 245.274C188.804 244.839 189.564 244.187 189.999 243.427C190.379 242.666 190.434 241.906 190.162 241.036V240.982C188.967 237.288 188.532 233.214 188.967 229.465C189.51 225.119 191.14 221.588 193.693 219.144C194.562 218.329 195.92 218.383 196.681 219.252C197.496 220.122 197.441 221.48 196.572 222.24C195.323 223.435 193.693 225.771 193.15 229.954C192.77 233.051 193.15 236.582 194.128 239.624C194.834 241.58 194.671 243.644 193.693 245.437C192.824 247.012 191.411 248.316 189.619 249.131C188.315 249.674 186.903 250 185.49 250Z" fill="#1C1C1C"/>
<path d="M185.218 223.544C183.806 222.566 178.754 229.465 182.448 240.167C182.774 241.308 185.164 241.634 184.458 238.755C183.48 234.844 182.774 232.779 183.806 228.27C184.73 223.979 186.251 224.25 185.218 223.544Z" fill="white"/>
<path d="M83.7408 220.067L101.179 220.502C106.72 220.556 160.284 221.099 165.662 221.154L183.263 221.045C217.433 220.013 236.772 199.533 237.098 165.906C237.315 146.186 234.273 105.063 230.579 92.2968C217.487 46.9361 176.201 42.9161 176.201 42.9161C176.201 42.9161 175.223 34.6045 170.388 26.0213C162.891 25.9126 153.656 39.9283 153.656 39.9283L116.444 39.548C116.444 39.548 107.535 25.3151 100.038 25.3151C95.0945 33.7896 93.8994 42.1012 93.8994 42.1012C93.8994 42.1012 50.9833 45.252 38.5973 90.3411C35.0663 103.162 30.7747 144.068 30.6117 163.787C30.2857 197.414 49.1906 218.275 83.3605 219.959L83.7408 220.067Z" fill="#9270F4"/>
<path d="M165.662 223.327C160.338 223.272 107.209 222.729 101.179 222.675H101.125L83.6866 222.24H83.3063C74.6144 221.806 66.7374 220.122 59.8926 217.297C53.102 214.472 47.235 210.506 42.5632 205.4C37.8913 200.348 34.3059 194.263 31.9699 187.31C29.634 180.356 28.4932 172.479 28.5475 163.896C28.6562 154.389 29.6883 139.613 31.318 124.348C33.0021 108.54 34.9578 95.9909 36.6418 89.9066C39.5753 79.3133 44.3559 70.0782 50.9834 62.5272C56.2528 56.4428 62.6631 51.445 70.0512 47.588C79.8839 42.4272 88.6844 40.7975 92.2155 40.3086C92.813 37.375 94.4971 30.9648 98.2998 24.3916C98.6801 23.7397 99.3863 23.3051 100.147 23.3594C103.895 23.3594 108.132 26.0213 112.75 31.2364C115.032 33.7897 116.824 36.2886 117.694 37.6467L152.624 37.9726C153.548 36.6688 155.395 34.1699 157.73 31.671C162.457 26.5645 166.748 24.0113 170.497 24.0656C171.257 24.0656 171.963 24.5002 172.344 25.1521C176.038 31.834 177.559 38.2442 178.102 41.2321C181.579 41.7753 190.053 43.6223 199.56 48.9461C206.731 52.9118 212.978 58.0726 218.248 64.2655C224.767 71.9796 229.601 81.269 232.698 91.9166C236.555 105.28 239.488 147.001 239.325 166.123C239.217 174.707 237.913 182.529 235.468 189.483C232.969 196.436 229.275 202.412 224.495 207.356C219.714 212.299 213.793 216.21 206.894 218.872C199.995 221.588 192.063 223.055 183.371 223.327H183.317H165.662ZM101.233 218.438C107.372 218.492 160.284 219.035 165.662 219.09L183.209 218.981C191.411 218.709 198.8 217.351 205.264 214.798C211.566 212.353 216.944 208.822 221.344 204.259C225.69 199.75 229.058 194.263 231.34 187.907C233.676 181.443 234.871 174.055 234.979 165.96C235.088 156.236 234.382 141.243 233.187 126.738C231.883 110.93 230.199 98.5984 228.569 92.9487C225.69 82.8987 221.072 74.0982 214.988 66.8731C210.099 61.1147 204.232 56.2799 197.496 52.5315C186.088 46.1756 176.146 45.1434 176.038 45.1434C175.06 45.0348 174.245 44.2742 174.136 43.2964C174.136 43.2421 173.213 36.0169 169.247 28.4116C166.966 28.9548 164.032 31.0734 160.881 34.4959C157.785 37.8096 155.557 41.2321 155.503 41.2864C155.123 41.884 154.417 42.2642 153.71 42.2642L116.498 41.884C115.792 41.884 115.086 41.5037 114.706 40.9061C114.706 40.8518 112.533 37.4294 109.491 34.0613C106.394 30.5845 103.515 28.4116 101.233 27.814C97.159 35.3651 96.0725 42.5358 96.0725 42.6445C95.9095 43.6223 95.0947 44.3829 94.1168 44.4915C94.1168 44.4915 91.4549 44.7088 87.3806 45.6867C83.6322 46.5558 77.9282 48.3485 71.7896 51.5537C64.9447 55.1934 58.9691 59.8653 54.0256 65.515C47.8869 72.5771 43.378 81.2147 40.6618 91.156C39.0864 96.9687 37.1307 109.572 35.501 124.946C33.8713 140.048 32.8391 154.661 32.7848 164.059C32.6761 172.153 33.7626 179.542 35.9899 186.06C38.1629 192.471 41.4223 198.012 45.6596 202.629C49.9512 207.247 55.275 210.887 61.5223 213.44C67.9326 216.102 75.3206 217.623 83.5236 218.057H83.8495L101.233 218.438Z" fill="#1C1C1C"/>
<path d="M146.159 106.53L144.041 106.964C144.041 106.964 144.312 108.54 143.334 109.735C142.411 110.821 140.727 111.365 138.282 111.31C137.522 111.31 136.87 111.147 136.381 110.821C136.055 110.604 135.675 110.224 135.62 109.3V106.856C135.62 106.258 135.131 105.769 134.534 105.769C133.936 105.769 133.447 106.258 133.447 106.856V109.3C133.393 110.224 132.958 110.604 132.633 110.821C132.198 111.093 131.492 111.256 130.731 111.256C128.287 111.256 126.603 110.658 125.733 109.572C124.756 108.377 125.027 106.801 125.081 106.801L122.963 106.312C122.963 106.421 122.42 108.866 124.049 110.876C125.353 112.505 127.635 113.375 130.731 113.429H130.785C131.6 113.429 132.795 113.266 133.773 112.668C133.991 112.505 134.262 112.342 134.48 112.071C134.697 112.342 134.968 112.505 135.186 112.668C136.218 113.32 137.413 113.483 138.228 113.483H138.391C141.433 113.483 143.66 112.668 144.964 111.093C146.648 109.083 146.159 106.638 146.159 106.53ZM230.579 92.6228C230.579 92.6228 224.277 93.8722 213.63 106.421C203.852 117.938 206.188 138.635 235.142 136.843C235.305 121.089 235.957 121.089 230.579 92.6228ZM31.0463 152.053C31.0463 152.053 46.1484 153.683 46.4743 138.69C46.6916 128.205 33.1649 127.119 33.1649 127.119L31.0463 152.053ZM116.716 43.3507C116.716 43.3507 126.494 73.3377 100.255 76.9231C71.4635 80.8888 63.5865 56.3885 63.5865 56.3885C63.5865 56.3885 77.7108 45.1434 95.0945 43.894C97.9737 29.4437 101.233 27.1078 101.233 27.1078C101.233 27.1078 115.575 34.3872 116.716 43.3507Z" fill="#1C1C1C"/>
<path d="M205.916 79.3133C197.767 73.0117 177.124 60.5715 152.407 56.4429C141.107 54.5415 147.029 49.0548 153.873 49.3807C168.052 50.0326 184.675 54.7045 199.18 62.9618C220.692 76.1082 214.065 85.6149 205.916 79.3133ZM139.369 52.6402C138.771 54.5415 136.707 55.628 134.751 55.0304C132.85 54.4329 131.763 52.3685 132.361 50.4129C132.959 48.4572 135.023 47.425 136.979 48.0226C138.88 48.6745 139.966 50.7388 139.369 52.6402Z" fill="white"/>
<path d="M57.6653 130.867C57.2307 130.867 56.7961 130.595 56.6874 130.161C56.5244 129.618 56.7961 129.02 57.3936 128.803L65.325 126.195C65.8682 126.032 66.4658 126.304 66.6831 126.901C66.846 127.445 66.5744 128.042 65.9769 128.259L58.0455 130.867H57.6653ZM65.5966 123.044C65.5423 123.044 65.5423 123.044 65.5966 123.044L57.0134 122.936C56.4158 122.936 55.9812 122.447 55.9812 121.849C55.9812 121.252 56.4701 120.817 57.0134 120.817L65.5966 120.926C66.1942 120.926 66.6287 121.415 66.6287 122.012C66.6287 122.555 66.1398 123.044 65.5966 123.044ZM193.313 129.563C193.204 129.563 193.096 129.563 192.987 129.509L185.11 126.738C184.567 126.575 184.295 125.923 184.458 125.38C184.621 124.837 185.273 124.565 185.816 124.728L193.693 127.499C194.236 127.662 194.508 128.314 194.345 128.857C194.182 129.237 193.802 129.563 193.313 129.563ZM194.128 121.632L185.544 121.523C184.947 121.523 184.512 121.034 184.512 120.437C184.512 119.839 185.001 119.405 185.599 119.405L194.182 119.513C194.78 119.513 195.214 120.002 195.214 120.6C195.214 121.197 194.725 121.632 194.128 121.632ZM167.78 113.592C163 112.234 161.044 111.636 161.533 109.192C162.076 106.584 164.793 106.149 172.181 108.431C177.179 110.006 178.808 112.288 177.233 114.57C175.712 116.851 171.909 114.787 167.78 113.592Z" fill="#1C1C1C"/>
<path d="M32.2959 138.418C32.2959 138.418 72.0069 159.442 134.534 158.572C163.76 158.192 197.876 153.031 235.305 138.744C239.488 210.072 237.098 226.532 193.476 226.532H77.059C21.1594 226.586 26.6461 193.829 32.2959 138.418Z" fill="#6331F4"/>
<path d="M193.53 228.705H77.1133C67.009 228.705 58.8061 227.673 52.0699 225.554C45.388 223.435 40.2815 220.339 36.3702 215.993C33.2194 212.516 30.9378 208.279 29.3624 203.118C27.9499 198.501 27.1894 193.123 26.9178 186.712C26.4289 174.761 27.8956 160.528 29.634 144.068C29.8513 142.166 30.0142 140.211 30.2315 138.255C30.2859 137.549 30.7205 136.951 31.3724 136.571C31.9699 136.245 32.7305 136.245 33.3823 136.571C33.5453 136.625 43.4867 141.84 60.8161 146.838C71.029 149.772 81.7309 152.108 92.7044 153.737C106.394 155.747 120.518 156.671 134.588 156.508C167.943 156.073 201.57 149.446 234.654 136.843C235.305 136.571 236.012 136.68 236.555 137.06C237.098 137.44 237.478 138.038 237.533 138.744C238.891 161.343 239.488 177.857 238.511 190.569C237.424 204.259 234.545 212.951 229.004 218.764C225.473 222.458 220.855 225.065 214.825 226.641C209.23 227.999 202.494 228.705 193.53 228.705ZM34.0886 141.678C33.9799 142.601 33.8713 143.525 33.8169 144.448C32.1329 160.745 30.6661 174.87 31.1007 186.495C31.318 192.579 32.0786 197.577 33.3823 201.814C34.7405 206.378 36.7505 210.017 39.4667 213.06C42.8891 216.808 47.398 219.578 53.3193 221.425C59.6753 223.435 67.4436 224.413 77.1133 224.413H193.53C202.113 224.413 208.524 223.761 213.739 222.403C218.954 221.045 222.919 218.818 225.907 215.721C228.298 213.168 230.145 209.909 231.503 205.726C232.861 201.543 233.73 196.436 234.273 190.135C235.197 178.238 234.654 162.755 233.458 141.786C200.81 153.9 167.617 160.311 134.643 160.745C120.247 160.908 105.905 159.985 91.9438 157.92C80.753 156.291 69.8339 153.9 59.458 150.858C46.8547 147.273 38.2172 143.579 34.0886 141.678Z" fill="#1C1C1C"/>
<path d="M54.0255 78.6614C45.3337 83.8766 43.8669 110.332 42.8348 118.753C41.7483 127.173 46.5288 125.598 49.245 118.481C51.9069 111.473 61.9569 73.9352 54.0255 78.6614ZM63.5323 70.4042C63.5323 72.1969 62.0655 73.6636 60.2728 73.6636C58.4801 73.6636 57.0134 72.1969 57.0134 70.4042C57.0134 68.6115 58.4801 67.1447 60.2728 67.1447C62.0655 67.1447 63.5323 68.6115 63.5323 70.4042Z" fill="white"/>
<path d="M115.14 173.294C115.14 173.294 134.208 193.557 135.24 208.333C137.467 192.253 149.962 173.729 157.459 169.22C147.898 166.993 133.121 161.017 115.14 173.294Z" fill="#1C1C1C"/>
<path d="M129.21 143.959C129.21 143.959 165.281 133.746 189.401 149.446C197.333 157.703 177.722 169.057 157.459 169.22C138.826 160.528 114.977 173.131 114.977 173.131C114.977 173.131 92.65 173.131 94.497 158.844C95.6378 149.989 129.21 143.959 129.21 143.959Z" fill="white"/>
<path d="M114.977 174.163C114.869 174.163 111.609 174.163 107.698 173.349C102.32 172.262 98.3542 170.361 95.9639 167.59C93.8453 165.146 92.9761 162.158 93.4107 158.627C93.7366 156.236 95.8552 154.009 99.8752 151.782C102.863 150.152 106.937 148.522 111.935 147.001C120.084 144.502 128.232 142.981 128.939 142.873C129.754 142.655 138.5 140.265 150.179 139.668C157.242 139.342 163.923 139.722 169.953 140.808C177.559 142.221 184.295 144.774 189.89 148.468L190.053 148.631C192.172 150.858 192.715 153.412 191.575 156.073C190.814 157.92 189.293 159.713 187.011 161.452C184.893 163.081 182.231 164.602 179.08 165.852C172.507 168.568 164.793 170.143 157.35 170.198C157.187 170.198 157.024 170.143 156.916 170.089C152.787 168.188 148.061 167.156 142.846 167.101C138.663 167.047 134.099 167.644 129.373 168.84C121.279 170.85 115.412 173.946 115.358 173.946C115.358 174.109 115.195 174.163 114.977 174.163ZM155.177 141.732C153.602 141.732 151.972 141.786 150.342 141.84C138.554 142.438 129.645 144.937 129.536 144.937H129.428C129.319 144.937 120.953 146.458 112.587 149.011C98.2998 153.357 95.8009 157.051 95.5836 158.844C95.2034 161.723 95.8552 164.113 97.5936 166.123C102.266 171.393 112.967 171.882 114.76 171.936C116.01 171.339 121.551 168.622 128.993 166.775C133.882 165.58 138.608 164.983 143.009 164.983C148.441 165.037 153.385 166.069 157.731 168.025C164.847 167.916 172.181 166.449 178.428 163.842C181.362 162.647 183.915 161.18 185.87 159.713C187.826 158.246 189.13 156.671 189.782 155.204C190.542 153.357 190.216 151.727 188.75 150.152C183.372 146.675 176.961 144.231 169.682 142.873C165.119 142.166 160.284 141.732 155.177 141.732Z" fill="#1C1C1C"/>
<path d="M78.9603 147.871C78.9603 147.871 110.957 128.368 172.995 156.617C179.188 167.047 169.03 171.664 157.459 169.166C145.888 166.721 125.733 162.973 109.11 166.286C92.2154 171.013 64.2927 153.738 78.9603 147.871Z" fill="white"/>
<path d="M163.38 170.904C161.424 170.904 159.36 170.687 157.241 170.252C144.258 167.482 125.19 164.222 109.382 167.373C106.231 168.242 102.646 168.459 98.6799 167.916C95.1488 167.482 91.4005 166.504 87.8694 165.091C84.5013 163.733 81.4048 162.049 79.0146 160.148C76.4613 158.192 74.7773 156.128 74.1254 154.172C73.6365 152.651 73.7451 151.184 74.5056 149.989C75.2662 148.74 76.6243 147.708 78.5256 146.947C78.9602 146.675 80.9702 145.589 84.6099 144.285C88.304 142.981 94.3883 141.297 102.646 140.645C111.881 139.885 121.876 140.428 132.361 142.329C145.399 144.72 159.251 149.229 173.484 155.693C173.702 155.802 173.865 155.91 173.973 156.128C177.07 161.343 176.038 164.711 174.679 166.612C173.267 168.568 170.822 169.926 167.563 170.578C166.205 170.795 164.847 170.904 163.38 170.904ZM123.723 163.95C135.946 163.95 148.387 166.178 157.73 168.188C161.153 168.894 164.412 169.003 167.183 168.459C169.899 167.916 171.855 166.884 172.941 165.363C174.679 162.918 173.593 159.767 172.289 157.486C158.382 151.184 144.855 146.784 132.089 144.448C121.822 142.547 112.044 142.003 102.972 142.764C94.9315 143.416 88.9559 145.046 85.4248 146.295C81.5678 147.653 79.5578 148.848 79.5578 148.848C79.5035 148.903 79.4491 148.903 79.3948 148.903C75.1575 150.587 75.9181 152.814 76.1354 153.52C77.1675 156.671 82.2197 160.528 88.6843 163.081C92.0524 164.439 95.5834 165.363 98.9515 165.797C102.646 166.286 106.014 166.069 108.893 165.254H108.947C113.673 164.331 118.671 163.95 123.723 163.95Z" fill="#1C1C1C"/>
<path d="M134.48 213.331C125.19 189.048 84.8274 175.63 84.8274 175.63L94.4427 167.101C94.4427 167.101 87.0003 166.395 72.9847 167.101C42.8891 152.868 23.1694 156.834 1.38538 160.256C7.52401 130.921 33.2194 121.197 33.2194 121.197C33.2194 121.197 32.2958 135.322 32.2958 138.364C69.9968 138.364 102.211 157.432 111.826 169.111C129.21 190.243 134.48 199.315 134.48 207.573V213.331Z" fill="#9270F4"/>
<path d="M134.48 214.798C133.882 214.798 133.393 214.309 133.393 213.711V213.548C131.329 208.225 127.526 203.01 122.094 198.012C117.639 193.937 112.152 190.026 105.688 186.332C94.66 180.03 84.61 176.662 84.5014 176.662C84.1211 176.554 83.8495 176.228 83.7952 175.847C83.7409 175.467 83.8495 175.087 84.1211 174.815L91.7808 167.97C88.5214 167.807 82.1655 167.644 73.039 168.133C72.876 168.133 72.713 168.079 72.5501 168.025C65.7052 164.765 59.1863 162.429 52.7761 160.745C47.0177 159.279 41.368 158.409 35.5553 158.138C24.6904 157.595 14.8578 159.17 4.42751 160.8C3.44968 160.963 2.52617 161.126 1.54833 161.234C1.22239 161.289 0.842117 161.18 0.62482 160.908C0.407523 160.637 0.298875 160.311 0.353199 159.93C1.76563 153.14 4.37319 146.784 8.06724 141.08C11.0007 136.517 14.6948 132.388 18.9321 128.803C26.1572 122.664 32.5675 120.219 32.8391 120.111C33.165 120.002 33.5453 120.056 33.8712 120.274C34.1429 120.491 34.3058 120.817 34.3058 121.197C34.3058 121.306 33.5453 132.931 33.4366 137.277C54.3515 137.495 71.8982 143.362 83.089 148.359C89.7165 151.293 96.0181 154.824 101.342 158.464C106.231 161.832 110.197 165.309 112.75 168.405C121.768 179.324 127.309 186.821 130.677 192.634C134.099 198.446 135.62 203.064 135.62 207.573V213.603C135.512 214.309 135.023 214.798 134.48 214.798ZM86.8917 175.25C90.2598 176.499 98.1911 179.65 106.666 184.485C113.239 188.233 118.943 192.253 123.506 196.436C127.798 200.348 131.057 204.422 133.393 208.605V207.681C133.393 203.607 131.981 199.316 128.721 193.829C125.408 188.125 119.921 180.737 110.957 169.872C106.829 164.82 97.0503 157.051 82.1111 150.369C70.9747 145.372 53.265 139.45 32.2415 139.45C31.6439 139.45 31.155 138.961 31.155 138.364C31.155 135.919 31.6983 126.738 31.9156 122.881C29.6339 123.968 25.0164 126.412 20.0729 130.595C15.9986 134.072 12.4675 138.038 9.64264 142.384C6.38319 147.382 4.04725 152.977 2.58049 158.953C3.01509 158.898 3.44968 158.79 3.9386 158.735C24.5818 155.476 44.1385 152.379 73.039 166.015C86.783 165.309 94.0625 166.015 94.3884 166.015C94.823 166.069 95.1489 166.341 95.3119 166.721C95.4749 167.101 95.3119 167.536 94.986 167.862L86.8917 175.25Z" fill="#1C1C1C"/>
<path d="M135.24 213.331C144.53 189.048 183.317 175.467 183.317 175.467L176.907 165.689L195.051 168.894C195.051 168.894 231.448 150.369 267.9 160.256C261.761 130.921 236.066 121.197 236.066 121.197C236.066 121.197 236.989 135.322 236.989 138.364C199.288 138.364 167.074 157.432 157.459 169.111C140.075 190.243 135.24 199.315 135.24 207.573V213.331Z" fill="#9270F4"/>
<path d="M135.24 214.798C134.643 214.798 134.154 214.309 134.154 213.711V207.681C134.154 203.118 135.621 198.501 138.88 192.742C142.302 186.767 147.735 179.324 156.59 168.514C159.143 165.417 163.109 161.94 167.998 158.572C173.322 154.878 179.623 151.402 186.251 148.468C197.387 143.525 214.988 137.603 235.903 137.386C235.794 133.04 235.034 121.469 235.034 121.306C235.034 120.926 235.197 120.6 235.468 120.382C235.74 120.165 236.12 120.111 236.501 120.219C236.772 120.328 243.182 122.773 250.408 128.911C254.645 132.497 258.339 136.625 261.272 141.189C264.966 146.838 267.574 153.194 268.986 160.039C269.041 160.419 268.932 160.8 268.661 161.017C268.389 161.289 268.009 161.343 267.628 161.289C259.425 159.061 250.516 158.083 241.172 158.464C233.676 158.79 225.907 159.93 218.03 161.886C204.667 165.2 195.594 169.763 195.486 169.817C195.269 169.926 195.051 169.98 194.834 169.926L179.134 167.156L184.186 174.87C184.349 175.141 184.404 175.467 184.295 175.793C184.186 176.119 183.969 176.336 183.643 176.445C183.535 176.499 173.919 179.922 163.272 186.223C157.024 189.917 151.701 193.883 147.409 197.957C142.139 202.955 138.391 208.225 136.327 213.494V213.657C136.327 214.309 135.838 214.798 135.24 214.798ZM237.261 122.936C237.478 126.847 238.076 136.028 238.076 138.418C238.076 139.016 237.587 139.505 236.99 139.505C216.02 139.505 198.311 145.426 187.12 150.424C172.181 157.106 162.402 164.874 158.274 169.926C149.473 180.628 144.095 187.962 140.727 193.829C137.631 199.261 136.272 203.498 136.272 207.681V208.551C138.554 204.422 141.814 200.348 145.888 196.436C150.342 192.253 155.775 188.179 162.185 184.431C170.714 179.378 178.645 176.119 181.633 174.978L175.983 166.286C175.766 165.906 175.766 165.471 175.983 165.091C176.201 164.711 176.635 164.548 177.07 164.602L194.888 167.753C196.627 166.884 205.373 162.81 217.541 159.822C225.527 157.812 233.458 156.671 241.118 156.345C250.027 155.965 258.556 156.834 266.488 158.79C265.075 152.868 262.685 147.382 259.48 142.384C256.655 138.038 253.124 134.018 249.049 130.595C244.106 126.412 239.543 124.022 237.261 122.936Z" fill="#1C1C1C"/>
<path d="M134.751 228.705C133.556 228.705 132.633 227.727 132.633 226.586V212.082C132.633 210.887 133.61 209.963 134.751 209.963C135.946 209.963 136.87 210.941 136.87 212.082V226.586C136.87 227.727 135.892 228.705 134.751 228.705Z" fill="#1C1C1C"/>
<path d="M130.188 167.645C130.188 167.645 144.367 181.606 144.367 213.711C144.801 219.47 159.903 219.415 160.827 213.711C164.63 190.515 153.819 170.632 151.429 167.97C145.833 165.797 132.578 165.146 130.188 167.645Z" fill="white"/>
<path d="M152.352 219.09H151.592C149.527 218.981 147.626 218.546 146.214 217.786C144.421 216.862 143.443 215.504 143.334 213.82V213.766C143.334 206.541 142.628 199.696 141.161 193.34C140.021 188.288 138.391 183.561 136.381 179.27C133.665 173.457 130.677 169.654 129.482 168.459C129.047 168.079 129.047 167.373 129.482 166.938C130.242 166.178 131.6 165.635 133.61 165.309C135.294 165.037 137.359 164.928 139.695 165.037C144.312 165.146 149.093 165.96 151.863 167.047C152.026 167.101 152.135 167.21 152.244 167.319C153.765 169.003 157.078 175.087 159.469 182.855C160.935 187.527 161.913 192.308 162.348 197.088C162.945 202.847 162.782 208.496 161.859 213.929C161.587 215.721 160.229 217.134 158.002 218.057C156.372 218.709 154.417 219.09 152.352 219.09ZM145.399 213.657C145.453 214.526 146.051 215.233 147.191 215.83C148.332 216.428 149.962 216.808 151.7 216.917C155.394 217.08 159.414 215.83 159.795 213.548C160.664 208.279 160.827 202.847 160.284 197.251C159.795 192.634 158.871 188.016 157.459 183.453C155.177 176.01 152.135 170.469 150.831 168.894C148.224 167.97 143.878 167.264 139.64 167.156C135.512 167.047 133.121 167.482 131.926 167.916C133.23 169.437 135.783 172.805 138.337 178.183C140.401 182.584 142.085 187.527 143.28 192.742C144.638 199.261 145.399 206.269 145.399 213.657Z" fill="#1C1C1C"/>
<path d="M130.188 167.644L132.035 169.817C128.939 175.63 116.39 184.648 119.703 211.05C119.269 216.808 104.167 216.754 103.243 211.05C99.4405 187.853 113.239 175.413 115.629 172.751C124.049 168.731 130.188 167.644 130.188 167.644Z" fill="white"/>
<path d="M111.663 216.428C109.599 216.428 107.643 216.047 106.014 215.395C103.786 214.472 102.483 213.005 102.157 211.267C100.636 201.869 101.722 193.123 105.416 185.191C108.404 178.781 112.261 174.761 114.108 172.805C114.38 172.534 114.597 172.316 114.76 172.099C114.869 171.99 114.977 171.936 115.086 171.827C123.56 167.753 129.645 166.667 129.916 166.612C130.297 166.558 130.677 166.667 130.894 166.993L132.741 169.166C133.013 169.492 133.067 169.98 132.85 170.361C132.198 171.556 131.22 172.86 130.079 174.326C127.689 177.423 124.756 181.28 122.637 187.038C121.496 190.189 120.736 193.611 120.355 197.197C119.921 201.38 120.029 205.997 120.627 210.941V211.158C120.518 212.788 119.486 214.146 117.748 215.124C116.335 215.884 114.434 216.319 112.37 216.428H111.663ZM116.281 173.674L115.738 174.218C113.945 176.065 110.251 179.976 107.426 186.06C103.895 193.611 102.863 201.923 104.33 210.887C104.71 213.223 108.73 214.418 112.424 214.255C114.162 214.2 115.792 213.82 116.933 213.168C118.019 212.625 118.617 211.864 118.726 211.05C116.009 189.374 123.886 179.107 128.558 173.023C129.427 171.882 130.242 170.85 130.786 169.926L129.862 168.785C127.363 169.329 122.202 170.85 116.281 173.674Z" fill="#1C1C1C"/>
<path d="M134.534 59.9196C186.576 59.9196 196.844 68.6115 196.844 68.6115C196.844 68.6115 186.088 89.2004 134.534 89.2004H133.828C82.274 89.2004 71.5178 68.6115 71.5178 68.6115C71.5178 68.6115 81.7851 59.9196 133.828 59.9196H134.534Z" fill="#6331F4"/>
<path d="M134.534 91.319H133.828C121.931 91.319 111.175 90.2325 101.885 88.0595C94.3885 86.3212 87.8153 83.8766 82.3285 80.7801C72.7675 75.402 69.7796 69.8609 69.671 69.6436C69.1821 68.7745 69.3994 67.688 70.1599 67.0361C70.4858 66.7645 73.365 64.4828 82.6545 62.2555C88.0326 60.9518 94.4971 59.9739 101.94 59.2134C111.175 58.2899 121.877 57.8553 133.828 57.8553H134.534C146.485 57.8553 157.187 58.3442 166.422 59.2134C173.865 59.9196 180.329 60.9518 185.707 62.2555C194.997 64.4828 197.93 66.7645 198.202 67.0361C198.963 67.688 199.18 68.7745 198.691 69.6436C198.582 69.8609 195.594 75.402 186.033 80.7801C180.547 83.8766 173.973 86.3212 166.477 88.0595C157.187 90.2325 146.431 91.319 134.534 91.319ZM74.6688 69.3177C74.9948 69.698 75.375 70.1326 75.8639 70.6215C77.4393 72.2512 80.3185 74.7501 84.8818 77.249C90.0426 80.0739 96.2355 82.3555 103.298 83.9852C112.207 86.0496 122.474 87.0817 133.937 87.0817H134.643C146.051 87.0817 156.372 86.0496 165.282 83.9852C172.344 82.3555 178.537 80.1282 183.697 77.249C188.261 74.7501 191.086 72.2512 192.715 70.6215C193.204 70.1326 193.585 69.698 193.91 69.3177C192.226 68.5028 189.13 67.362 184.023 66.1669C178.808 64.9718 172.561 64.0482 165.39 63.342C156.481 62.5272 146.159 62.0926 134.697 62.0926H133.991C122.528 62.0926 112.207 62.5272 103.298 63.342C96.1269 64.0482 89.8796 64.9718 84.6645 66.1669C79.395 67.3077 76.3529 68.5028 74.6688 69.3177Z" fill="#1C1C1C"/>
<path d="M134.534 73.6636C134.534 73.6636 177.178 73.6636 217.107 65.2977C204.83 21.1865 168.976 2.11865 133.882 2.11865H134.588C99.4406 2.11865 63.5866 21.1321 51.3636 65.2977C91.2919 73.6636 133.936 73.6636 133.936 73.6636H134.534Z" fill="#6331F4"/>
<path d="M134.534 75.7823H133.828C133.719 75.7823 122.909 75.7823 107.372 74.7501C93.0302 73.7723 71.5721 71.7623 50.8203 67.4163C50.2227 67.3077 49.7338 66.9274 49.4622 66.4385C49.1362 65.9496 49.0819 65.352 49.2449 64.7545C52.287 53.8896 56.8503 44.0569 62.8259 35.5824C68.4213 27.651 75.2662 20.8605 83.1432 15.4281C90.5856 10.3216 98.8972 6.35593 107.861 3.74837C116.172 1.30378 124.864 0.0543242 133.773 0H134.697C143.606 0.0543242 152.298 1.3581 160.609 3.74837C169.573 6.35593 177.885 10.2673 185.327 15.4281C193.258 20.8605 200.049 27.651 205.644 35.5824C211.62 44.0569 216.183 53.8896 219.171 64.7545C219.334 65.2977 219.225 65.9496 218.954 66.4385C218.628 66.9274 218.139 67.3077 217.596 67.4163C208.415 69.3177 198.365 70.9474 187.663 72.2512C179.134 73.2833 170.171 74.1525 161.044 74.7501C145.453 75.7823 134.643 75.7823 134.534 75.7823ZM53.9711 63.668C65.4878 65.9496 83.5778 68.8831 107.698 70.4585C123.126 71.4907 133.773 71.4907 133.882 71.4907H134.588C134.697 71.4907 145.399 71.4907 160.827 70.4585C174.516 69.535 194.725 67.6336 214.499 63.668C211.62 54.1612 207.491 45.5237 202.222 38.0269C196.898 30.5302 190.433 24.0656 182.937 18.9048C175.875 14.0156 167.998 10.3216 159.469 7.82269C151.429 5.48674 142.954 4.29161 134.317 4.23729C125.679 4.29161 117.204 5.48674 109.164 7.82269C100.636 10.3216 92.7586 14.0156 85.6964 18.9048C78.1997 24.0656 71.7351 30.5302 66.4113 38.0269C60.9789 45.5237 56.8503 54.1612 53.9711 63.668Z" fill="#1C1C1C"/>
<path d="M203.852 180.085C203.852 182.747 202.276 186.006 197.007 189.32C191.683 192.525 196.681 202.14 203.797 199.316C208.469 197.468 219.225 187.419 216.292 177.369L203.852 180.085Z" fill="#9270F4"/>
<path d="M201.244 201.977C200.049 201.977 198.908 201.706 197.822 201.217C195.975 200.402 194.454 198.881 193.53 197.034C192.715 195.404 192.444 193.611 192.769 191.982C193.095 190.135 194.236 188.559 195.866 187.527C198.039 186.115 199.614 184.702 200.592 183.29C201.298 182.203 201.679 181.117 201.679 180.085C201.679 178.89 202.656 177.966 203.797 177.966C204.992 177.966 205.916 178.944 205.916 180.139C205.916 182.04 205.264 183.887 204.123 185.68C202.819 187.636 200.809 189.483 198.148 191.167C198.148 191.167 198.093 191.167 198.093 191.221C197.767 191.439 196.083 192.579 197.333 195.187C197.822 196.165 198.636 196.98 199.56 197.414C200.646 197.903 201.787 197.903 202.982 197.414C204.992 196.599 208.523 193.829 211.131 190.243C215.042 184.865 214.988 180.628 214.228 178.075C213.902 176.934 214.553 175.793 215.694 175.413C216.835 175.087 217.976 175.739 218.356 176.88C219.117 179.596 219.117 182.475 218.302 185.463C217.596 187.907 216.4 190.406 214.662 192.797C213.195 194.807 211.457 196.708 209.556 198.283C207.817 199.75 206.079 200.891 204.612 201.434C203.471 201.76 202.331 201.977 201.244 201.977Z" fill="#1C1C1C"/>
<path d="M208.578 180.302C210.099 180.411 209.827 188.125 201.19 193.611C200.321 194.209 198.419 193.123 200.592 191.493C203.471 189.266 205.156 188.233 206.948 184.431C208.632 180.845 207.437 180.193 208.578 180.302Z" fill="white"/>
<path d="M68.9103 212.951C88.9016 212.951 86.7287 190.95 86.7287 190.95H50.3858C50.3858 190.95 48.1585 212.951 68.2041 212.951H68.9103Z" fill="#9270F4"/>
<path d="M68.9104 213.874C68.8017 213.874 68.6931 213.874 68.5844 213.82C68.4758 213.874 68.3671 213.874 68.2585 213.874C62.4458 213.874 57.8282 212.082 54.6231 208.496C52.1242 205.726 50.4402 201.76 49.7883 197.088C49.2993 193.611 49.571 190.95 49.571 190.841C49.6253 190.352 50.0056 190.026 50.4945 190.026H86.783C87.272 190.026 87.6522 190.406 87.7066 190.841C87.7066 190.95 87.9782 193.611 87.4893 197.088C86.8374 201.76 85.1533 205.671 82.6544 208.496C79.3406 212.082 74.7231 213.874 68.9104 213.874ZM51.255 191.873C51.2007 192.905 51.2007 194.752 51.5266 196.925C51.9612 199.913 53.0477 204.15 55.9269 207.301C58.8061 210.452 62.9347 212.082 68.2042 212.082C68.3128 212.082 68.4215 212.082 68.5301 212.136C68.6388 212.082 68.7474 212.082 68.8561 212.082C74.1255 212.082 78.2541 210.452 81.1333 207.301C84.0125 204.15 85.099 199.913 85.5336 196.925C85.8595 194.752 85.8595 192.905 85.8052 191.873H51.255Z" fill="#1C1C1C"/>
<path d="M199.94 212.951C219.986 212.951 217.759 190.95 217.759 190.95H181.416C181.416 190.95 179.188 212.951 199.234 212.951H199.94Z" fill="#9270F4"/>
<path d="M199.506 213.874C199.397 213.874 199.288 213.874 199.18 213.82C199.071 213.874 198.962 213.874 198.854 213.874C193.041 213.874 188.424 212.082 185.218 208.496C182.72 205.726 181.035 201.76 180.384 197.088C179.895 193.611 180.166 190.95 180.166 190.841C180.221 190.352 180.601 190.026 181.09 190.026H217.378C217.867 190.026 218.248 190.406 218.302 190.841C218.302 190.95 218.574 193.611 218.085 197.088C217.433 201.76 215.749 205.671 213.25 208.496C209.936 212.082 205.318 213.874 199.506 213.874ZM181.85 191.873C181.796 192.905 181.796 194.752 182.122 196.925C182.557 199.913 183.643 204.15 186.522 207.301C189.401 210.452 193.53 212.082 198.8 212.082C198.908 212.082 199.017 212.082 199.125 212.136C199.234 212.082 199.343 212.082 199.451 212.082C204.721 212.082 208.904 210.452 211.729 207.301C214.608 204.15 215.694 199.913 216.129 196.925C216.455 194.752 216.455 192.905 216.401 191.873H181.85Z" fill="#1C1C1C"/>
<path d="M206.731 57.638C206.676 57.1491 206.242 56.7688 205.753 56.8231C202.331 57.1491 198.962 57.475 195.594 57.801C195.431 57.4207 195.268 56.9861 195.105 56.5515C194.128 54.2156 192.769 51.1734 190.977 47.6967C194.671 47.3707 198.365 46.9904 202.113 46.6102C202.602 46.5558 202.928 46.1213 202.874 45.6323C202.819 45.1434 202.385 44.8175 201.896 44.8718C197.93 45.3064 193.965 45.6867 189.999 46.0669C189.021 44.2742 187.88 42.3186 186.685 40.4172C185.653 38.7875 184.567 37.1578 183.426 35.6367C187.337 35.2564 191.303 34.8761 195.268 34.4415C195.757 34.3872 196.083 33.9526 196.029 33.518C195.975 33.0291 195.54 32.7032 195.105 32.7575C190.759 33.2464 186.468 33.681 182.231 34.0613C179.732 30.7475 177.015 27.7053 174.191 24.9348C177.45 24.6089 180.764 24.2286 184.078 23.8483C184.512 23.794 184.784 23.4137 184.73 23.0335C184.675 22.5989 184.295 22.3272 183.915 22.3816C180.166 22.8162 176.418 23.2508 172.778 23.5767C172.235 23.0878 171.692 22.5989 171.148 22.1643C168.867 20.2086 166.531 18.4159 164.086 16.7862C166.042 16.6232 167.943 16.4602 169.682 16.3516C170.116 16.2973 170.388 15.9713 170.388 15.5367C170.334 15.1021 170.008 14.8305 169.573 14.8305C167.183 15.0478 164.63 15.2651 161.968 15.4281C158.491 13.3094 154.851 11.5711 151.103 10.213H151.374C151.809 10.213 152.135 9.83268 152.081 9.45241C152.081 9.07214 151.755 8.7462 151.32 8.7462H151.266C148.495 8.85484 145.942 8.96349 143.497 9.01782C141.868 7.82268 140.238 6.7362 138.554 5.70404C138.174 5.48674 137.739 5.59539 137.522 5.97566C137.304 6.35593 137.413 6.79052 137.793 7.00782C138.88 7.65971 139.966 8.36593 140.999 9.07214C140.184 9.07214 139.423 9.12647 138.608 9.12647C138.337 8.90917 138.011 8.90917 137.739 9.07214C137.685 9.07214 137.685 9.12647 137.63 9.12647C136.544 9.12647 135.566 9.12647 134.534 9.18079V6.35593C134.534 5.92134 134.208 5.59539 133.773 5.59539C133.339 5.59539 133.013 5.92134 133.013 6.35593V9.18079H130.623L130.514 9.07214C130.242 8.90917 129.862 8.90917 129.59 9.18079C128.776 9.18079 127.961 9.18079 127.2 9.12647C128.287 8.36593 129.373 7.65971 130.514 7.00782C130.894 6.79052 131.003 6.35593 130.786 5.97566C130.568 5.59539 130.134 5.48674 129.753 5.70404C128.015 6.7362 126.385 7.87701 124.756 9.07214C120.138 8.96349 117.693 8.7462 117.639 8.7462C117.205 8.69187 116.879 9.01782 116.824 9.45241C116.77 9.83268 117.042 10.1586 117.367 10.2673C113.293 11.734 109.328 13.6354 105.579 16.0256C100.962 15.4824 99.0602 14.9392 99.0602 14.9392C98.68 14.8305 98.2454 15.0478 98.1367 15.4281C98.0281 15.8083 98.2454 16.2429 98.6256 16.3516C98.7343 16.4059 100.201 16.7862 103.623 17.2751C101.396 18.7962 99.2775 20.4259 97.2132 22.2186C96.344 22.9791 95.5292 23.7397 94.7143 24.5002C88.1954 23.6854 85.0446 22.8705 84.9903 22.8705C84.61 22.7618 84.1754 22.9791 84.0667 23.4137C83.9581 23.794 84.1754 24.2286 84.61 24.3372C84.773 24.3916 87.5978 25.0978 93.3562 25.8583C90.6943 28.5202 88.1954 31.4537 85.8051 34.6045C78.906 33.681 75.4835 32.8661 75.4292 32.8661C74.9946 32.7575 74.5057 33.0291 74.397 33.4637C74.2884 33.8983 74.56 34.3872 74.9946 34.4959C75.0489 34.4959 78.1997 35.2564 84.6643 36.1256C83.6322 37.538 82.6543 39.0048 81.7308 40.4715C80.3727 42.5902 79.1776 44.6545 78.1454 46.6102C71.8981 45.741 68.8016 45.0348 68.7473 44.9804C68.2584 44.8718 67.7695 45.1434 67.6608 45.6323C67.5522 46.1213 67.8238 46.6102 68.3127 46.7188C68.3671 46.7188 71.3006 47.425 77.2219 48.2942C75.5379 51.5537 74.2341 54.4872 73.3106 56.7145C73.0389 57.3664 72.8216 57.9639 72.6043 58.5072C66.683 57.6923 63.7495 57.0404 63.6952 57.0404C63.2063 56.9318 62.7173 57.2034 62.6087 57.7466C62.5 58.2355 62.7717 58.7245 63.3149 58.8331C63.3692 58.8331 66.1941 59.485 71.9525 60.2999C71.1919 62.4185 70.8116 63.7223 70.8116 63.7766C70.703 64.1569 70.9203 64.5915 71.3549 64.7001C71.4092 64.7001 71.4635 64.7545 71.5722 64.7545C71.8981 64.7545 72.2241 64.5372 72.2784 64.2112C72.2784 64.1569 72.6587 62.7988 73.5279 60.5172C78.1997 61.1147 84.5557 61.8209 92.65 62.3099C92.2154 64.2655 91.9981 65.4063 91.9981 65.4063C91.9438 65.7866 92.2154 66.2212 92.5957 66.2755H92.7043C93.0846 66.2755 93.4105 66.0039 93.4648 65.6236C93.4648 65.5693 93.6821 64.4285 94.1167 62.3642C95.1489 62.4185 96.181 62.4728 97.2675 62.5272C102.265 62.7988 107.426 62.9618 112.75 63.0704C112.478 65.678 112.37 67.199 112.37 67.199C112.315 67.6336 112.641 67.9596 113.076 68.0139H113.13C113.51 68.0139 113.836 67.688 113.891 67.3077C113.891 67.2534 113.999 65.7323 114.271 63.1247C117.639 63.1791 121.116 63.2334 124.647 63.2334C127.417 63.2334 130.242 63.2334 133.067 63.1791V68.5028C133.067 68.9374 133.393 69.2634 133.828 69.2634C134.262 69.2634 134.588 68.9374 134.588 68.5028V63.0161C136.87 62.9618 139.26 62.9074 141.596 62.8531C145.67 62.7445 149.799 62.5815 153.982 62.4185C154.308 65.4063 154.417 67.1447 154.417 67.199C154.471 67.5793 154.797 67.9053 155.177 67.9053H155.231C155.666 67.8509 155.938 67.525 155.938 67.0904C155.938 67.0361 155.829 65.2977 155.503 62.3642C161.533 62.0926 167.726 61.7666 174.028 61.332C174.625 63.8853 174.897 65.4063 174.897 65.4607C174.951 65.8409 175.277 66.1126 175.657 66.1126H175.766C176.146 66.0582 176.472 65.678 176.364 65.2434C176.364 65.189 176.092 63.7223 175.494 61.2777C181.742 60.8431 188.098 60.3542 194.562 59.7566C195.54 62.3642 195.975 63.9939 196.029 64.0482C196.138 64.3742 196.409 64.5915 196.735 64.5915C196.789 64.5915 196.844 64.5915 196.952 64.5372C197.333 64.4285 197.604 63.9939 197.496 63.6136C197.496 63.505 197.061 62.0382 196.138 59.5937C199.343 59.322 202.548 58.9961 205.807 58.6701C206.405 58.6158 206.785 58.1812 206.731 57.638ZM185.381 41.1234C186.468 42.8618 187.446 44.5458 188.369 46.1756C182.557 46.7188 176.907 47.1534 171.311 47.5337C170.66 45.904 170.008 44.2199 169.193 42.4272C168.378 40.5259 167.454 38.6788 166.531 36.8861C171.474 36.5602 176.527 36.1256 181.633 35.691C182.937 37.4294 184.186 39.2221 185.381 41.1234ZM109.436 27.1078C113.076 27.3251 116.824 27.4337 120.736 27.4881C120.681 27.7053 120.573 27.8683 120.518 28.0856C119.54 30.8018 118.671 33.6267 117.856 36.5602C113.076 36.4515 108.458 36.2886 104.004 36.0169H103.949C105.688 32.9205 107.535 29.9326 109.436 27.1078ZM126.82 18.3073C128.884 18.3073 131.003 18.3073 133.122 18.2529V25.967C129.645 26.0213 126.222 26.0756 122.963 26.0213C123.995 23.3051 125.082 20.7518 126.277 18.3073H126.82ZM151.103 17.5467C152.95 19.4481 154.743 21.5124 156.427 23.7397C156.698 24.1199 156.97 24.4459 157.241 24.8262C153.71 25.0978 150.234 25.3151 146.811 25.4781C145.779 22.8162 144.747 20.3173 143.606 17.927C146.159 17.8183 148.658 17.7097 151.103 17.5467ZM122.365 27.4881H125.896C128.232 27.4881 130.623 27.4881 133.067 27.4337V36.6145C128.395 36.6688 123.832 36.6688 119.377 36.6145C120.138 33.844 121.007 31.1821 121.931 28.5745C122.094 28.2486 122.257 27.8683 122.365 27.4881ZM134.588 27.4337C136.109 27.3794 137.63 27.3794 139.151 27.3251C141.379 27.2708 143.606 27.1621 145.833 27.0535C145.996 27.5967 146.214 28.0856 146.377 28.6289C147.246 31.0734 148.061 33.6267 148.821 36.2342C146.268 36.3429 143.715 36.4515 141.216 36.5059C138.989 36.5602 136.761 36.6145 134.588 36.6688V27.4337ZM147.843 28.0856C147.68 27.7053 147.572 27.3251 147.409 26.9448C150.994 26.7818 154.634 26.5102 158.328 26.2386C160.392 29.1178 162.294 32.1599 164.032 35.3651C159.414 35.691 154.851 35.9083 150.397 36.1256C149.582 33.3551 148.767 30.6932 147.843 28.0856ZM145.29 25.5324C143.226 25.641 141.161 25.6954 139.151 25.804C137.63 25.8583 136.109 25.9126 134.588 25.9126V18.2529C137.033 18.1986 139.532 18.1443 141.976 18.0356C143.171 20.3716 144.258 22.8705 145.29 25.5324ZM121.333 25.967C117.585 25.9126 113.999 25.804 110.523 25.641C111.012 24.9891 111.446 24.3372 111.935 23.7397C113.456 21.7297 115.086 19.8827 116.77 18.09C119.323 18.1986 121.931 18.2529 124.593 18.2529C123.397 20.7518 122.365 23.3051 121.333 25.967ZM103.841 37.7553C108.187 38.0269 112.75 38.1899 117.422 38.2986C116.661 41.0691 116.009 43.9483 115.357 46.9361C115.195 47.6967 115.032 48.4029 114.923 49.1091C109.925 49.0004 105.036 48.8375 100.418 48.5658C99.7121 48.5115 99.0602 48.5115 98.4083 48.4572C99.0602 46.7188 99.8208 44.9261 100.636 43.0791C101.45 41.2321 102.32 39.4394 103.189 37.7553C103.352 37.701 103.623 37.701 103.841 37.7553ZM116.824 47.1534C117.476 44.1113 118.182 41.1234 118.943 38.2442C121.55 38.2986 124.212 38.2986 126.929 38.2986C128.939 38.2986 131.003 38.2986 133.067 38.2442V49.0548C127.363 49.1091 121.768 49.1091 116.39 49.0004C116.553 48.4572 116.716 47.8596 116.824 47.1534ZM134.588 38.2986C136.761 38.2442 138.989 38.1899 141.216 38.1356C143.878 38.0813 146.594 37.9726 149.31 37.864C150.125 40.8518 150.886 43.9483 151.537 47.1534C151.646 47.6423 151.755 48.1312 151.809 48.6202C148.387 48.7831 145.073 48.8918 141.759 49.0004C139.314 49.0548 136.924 49.1091 134.588 49.1634V38.2986ZM153.058 46.8818C152.407 43.7853 151.7 40.7432 150.886 37.8097C155.503 37.5924 160.175 37.3207 164.955 36.9948C165.988 38.9505 166.911 40.9061 167.835 42.9704C168.541 44.5458 169.193 46.1213 169.736 47.588C164.195 47.9683 158.708 48.2942 153.384 48.5115C153.276 48.0226 153.167 47.4794 153.058 46.8818ZM180.438 34.1156C175.44 34.5502 170.497 34.9305 165.662 35.2564C163.923 31.997 162.022 28.9548 160.012 26.0756C163.978 25.7497 168.052 25.4237 172.181 24.9891C175.114 27.7597 177.885 30.8018 180.438 34.1156ZM170.116 23.1421C170.334 23.3051 170.497 23.4681 170.714 23.631C166.748 24.0113 162.891 24.3372 159.034 24.6632C158.6 24.0656 158.111 23.4137 157.622 22.8162C156.155 20.9148 154.634 19.1221 153.058 17.4381C155.992 17.2751 158.817 17.0578 161.533 16.8948C164.521 18.6875 167.4 20.8062 170.116 23.1421ZM146.703 10.3216C151.103 11.5711 155.286 13.3094 159.251 15.5367C156.807 15.6997 154.254 15.8627 151.7 16.0256C149.69 13.9613 147.572 12.1143 145.399 10.3759C145.833 10.3216 146.268 10.3216 146.703 10.3216ZM149.69 16.1343C147.463 16.2429 145.181 16.3516 142.9 16.4602C141.868 14.3416 140.727 12.3859 139.586 10.4846C140.673 10.4846 141.813 10.4302 143.009 10.4302C145.344 12.1686 147.572 14.07 149.69 16.1343ZM137.902 10.5389C139.097 12.3859 140.238 14.3959 141.324 16.5146C139.097 16.6232 136.87 16.6775 134.643 16.7319V10.5389H137.902ZM132.796 10.5389H133.122V16.7319C131.057 16.7862 128.993 16.7862 126.983 16.7862C128.124 14.5589 129.264 12.4946 130.514 10.5389H132.796ZM128.721 10.5389C127.526 12.4946 126.385 14.6132 125.299 16.7862C122.854 16.7862 120.464 16.7319 118.182 16.6775C120.464 14.3959 122.854 12.3316 125.299 10.4846C126.331 10.4846 127.472 10.5389 128.721 10.5389ZM121.55 10.3216C121.985 10.3216 122.42 10.3759 122.909 10.3759C120.518 12.2773 118.291 14.3416 116.118 16.5689C115.357 16.5146 114.651 16.5146 113.891 16.4602C111.718 16.3516 109.816 16.1886 108.132 16.08C112.424 13.6354 116.879 11.6797 121.55 10.3216ZM98.2454 23.1964C100.744 21.0235 103.352 19.1221 106.014 17.3837C108.078 17.601 110.577 17.8183 113.673 17.9813C114.054 17.9813 114.38 18.0356 114.76 18.0356C113.347 19.5567 112.044 21.1321 110.74 22.8162C110.034 23.6854 109.382 24.6089 108.73 25.5324H108.458C103.841 25.2608 99.9294 24.9348 96.7243 24.5545C97.2132 24.0656 97.7021 23.631 98.2454 23.1964ZM95.2575 25.9126C98.5713 26.2929 102.7 26.7275 107.698 26.9991C105.796 29.824 104.004 32.8118 102.32 35.9626C96.3983 35.5824 91.4548 35.0934 87.5435 34.6588C89.9881 31.4537 92.5413 28.5745 95.2575 25.9126ZM82.9803 41.1234C84.0667 39.385 85.2076 37.7553 86.3484 36.1799C90.314 36.6688 95.3662 37.1578 101.45 37.5924C100.636 39.1678 99.8751 40.7975 99.1689 42.4272C98.2454 44.4372 97.4848 46.3929 96.7786 48.2942C89.7165 47.8053 84.0667 47.2077 79.7208 46.6645C80.6986 44.8718 81.7851 43.0248 82.9803 41.1234ZM74.1797 58.5615C75.2662 55.8453 76.7873 52.3142 78.8516 48.3485C83.1976 48.9461 89.0103 49.5437 96.181 50.0326C94.7143 54.1069 93.7365 57.638 93.0846 60.2999C85.0989 59.7566 78.8516 59.1591 74.1797 58.5615ZM97.4848 60.5715L94.5513 60.4085C95.2032 57.7466 96.2354 54.2156 97.7021 50.1412C98.517 50.1956 99.3319 50.2499 100.201 50.3042C104.819 50.5758 109.599 50.7388 114.597 50.8475C113.836 54.8675 113.347 58.3985 113.022 61.1147C107.643 61.0061 102.483 60.8431 97.4848 60.5715ZM114.543 61.1147C114.869 58.3985 115.357 54.8675 116.118 50.8475C119.323 50.9018 122.583 50.9561 125.896 50.9561C128.287 50.9561 130.677 50.9561 133.122 50.9018V61.1691C126.711 61.2777 120.518 61.2234 114.543 61.1147ZM141.65 61.0061C139.26 61.0604 136.924 61.1147 134.643 61.1691V50.9018C136.979 50.8475 139.369 50.7931 141.813 50.7388C145.236 50.6302 148.713 50.5215 152.244 50.3585C153.004 54.2699 153.493 57.801 153.873 60.5715C149.69 60.7345 145.616 60.8974 141.65 61.0061ZM155.286 60.5172C154.96 57.7466 154.417 54.2699 153.71 50.3042C159.143 50.0326 164.738 49.761 170.388 49.3264C171.855 53.2377 172.887 56.7688 173.593 59.485C167.4 59.9196 161.261 60.2455 155.286 60.5172ZM175.114 59.4307C174.408 56.7145 173.376 53.2377 171.963 49.2721C177.667 48.8918 183.426 48.4029 189.293 47.8596C191.357 51.7166 192.878 55.1934 193.965 57.9639C187.609 58.5072 181.307 58.9961 175.114 59.4307Z" fill="white"/>
<path d="M149.202 213.114H149.147C148.55 213.06 148.115 212.571 148.169 211.973C148.495 206.486 148.278 200.891 147.463 195.35C146.811 190.895 145.833 186.441 144.475 182.149C142.194 174.815 139.749 170.415 139.749 170.361C139.477 169.872 139.64 169.22 140.184 168.894C140.673 168.622 141.325 168.785 141.65 169.329C141.759 169.492 144.258 174 146.54 181.552C147.898 185.952 148.93 190.515 149.582 195.078C150.397 200.782 150.614 206.541 150.288 212.136C150.234 212.679 149.745 213.114 149.202 213.114ZM155.775 213.114C155.123 213.06 154.688 212.571 154.688 212.027C154.96 205.291 154.743 198.881 153.928 193.068C153.276 188.396 152.298 184.05 150.994 180.193C149.256 174.924 147.192 171.556 146.377 170.524C145.996 170.089 146.105 169.383 146.54 169.003C146.974 168.622 147.68 168.731 148.061 169.166C148.169 169.274 150.668 172.425 153.004 179.324C154.362 183.344 155.394 187.799 156.046 192.634C156.861 198.609 157.133 205.183 156.861 212.082C156.807 212.679 156.372 213.114 155.775 213.114ZM115.14 210.778C114.597 210.778 114.108 210.343 114.054 209.8C113.456 203.01 113.673 196.708 114.706 191.113C115.521 186.604 116.824 182.475 118.617 178.944C121.713 172.805 125.136 170.415 125.299 170.306C125.788 169.98 126.44 170.089 126.766 170.578C127.092 171.067 126.983 171.719 126.494 172.045C126.44 172.099 123.235 174.381 120.41 180.085C118.726 183.453 117.476 187.364 116.716 191.656C115.738 197.034 115.575 203.118 116.118 209.691C116.172 210.289 115.738 210.778 115.14 210.832C115.195 210.778 115.195 210.778 115.14 210.778Z" fill="#6331F4"/>
<path d="M108.458 210.778C107.915 210.778 107.48 210.343 107.372 209.8C106.829 204.313 106.992 198.99 107.915 194.046C108.621 190.08 109.871 186.332 111.5 182.91C114.325 177.043 117.367 174.109 117.53 174C117.965 173.62 118.617 173.62 119.051 174.055C119.432 174.489 119.432 175.141 118.997 175.576C117.965 176.554 115.52 179.487 113.402 183.942C111.881 187.201 110.74 190.787 110.034 194.535C109.164 199.261 109.002 204.313 109.545 209.583C109.599 210.18 109.164 210.669 108.567 210.724C108.567 210.778 108.513 210.778 108.458 210.778ZM165.173 159.876C165.064 159.876 164.901 159.876 164.792 159.822C153.602 155.639 142.9 152.542 132.85 150.695C124.81 149.174 117.204 148.468 110.305 148.468C104.112 148.522 99.6034 149.174 96.9415 149.663C94.008 150.261 92.5413 150.858 92.5413 150.858C91.998 151.076 91.4005 150.804 91.1832 150.261C90.9659 149.718 91.2375 149.12 91.7807 148.903C92.0524 148.794 98.028 146.404 110.197 146.349C117.259 146.295 125.027 147.056 133.23 148.577C143.443 150.478 154.362 153.575 165.662 157.866C166.205 158.083 166.477 158.681 166.259 159.224C165.988 159.605 165.607 159.876 165.173 159.876ZM158.762 165.2C158.654 165.2 158.545 165.2 158.382 165.146C150.668 162.375 143.063 160.365 135.838 159.17C130.079 158.246 124.484 157.812 119.269 157.92C112.207 158.083 107.209 159.224 105.579 159.822C105.036 160.039 104.438 159.713 104.221 159.17C104.004 158.627 104.33 158.029 104.873 157.812C105.09 157.758 109.925 155.965 119.106 155.802C124.43 155.693 130.134 156.128 136.055 157.051C143.443 158.246 151.211 160.311 159.088 163.136C159.632 163.353 159.903 163.95 159.74 164.494C159.632 164.928 159.197 165.2 158.762 165.2ZM179.514 151.021C179.406 151.021 179.297 151.021 179.188 150.967C179.025 150.913 163.869 145.969 153.547 147.382C152.95 147.49 152.407 147.056 152.352 146.458C152.244 145.861 152.678 145.317 153.276 145.263C157.839 144.611 163.652 145.046 170.714 146.512C175.929 147.599 179.732 148.848 179.895 148.903C180.438 149.066 180.764 149.663 180.546 150.261C180.384 150.75 180.003 151.021 179.514 151.021Z" fill="#6331F4"/>
<path d="M27.7327 128.477C27.7327 128.477 15.5097 137.169 9.53406 153.086C9.53406 153.086 24.7448 149.066 44.1929 153.086C37.348 149.283 15.2381 148.414 15.2381 148.414L27.7327 128.477ZM241.607 128.477C241.607 128.477 253.83 137.169 259.806 153.086C259.806 153.086 244.595 149.066 225.147 153.086C231.992 149.283 254.102 148.414 254.102 148.414L241.607 128.477Z" fill="white"/>
<path d="M92.0524 140.482C108.194 140.482 121.279 127.397 121.279 111.256C121.279 95.1147 108.194 82.0295 92.0524 82.0295C75.911 82.0295 62.8259 95.1147 62.8259 111.256C62.8259 127.397 75.911 140.482 92.0524 140.482Z" fill="#9270F4"/>
<path d="M92.0524 141.515C87.9781 141.515 84.0124 140.7 80.264 139.124C76.6787 137.603 73.4192 135.43 70.6487 132.66C67.8781 129.889 65.7052 126.63 64.1841 123.044C62.6087 119.296 61.7938 115.33 61.7938 111.256C61.7938 107.182 62.6087 103.216 64.1841 99.4676C65.7052 95.8822 67.8781 92.6228 70.6487 89.8522C73.4192 87.0817 76.6787 84.9087 80.264 83.3876C84.0124 81.8122 87.9781 80.9974 92.0524 80.9974C96.1267 80.9974 100.092 81.8122 103.841 83.3876C107.426 84.9087 110.686 87.0817 113.456 89.8522C116.227 92.6228 118.4 95.8822 119.921 99.4676C121.496 103.216 122.311 107.182 122.311 111.256C122.311 115.33 121.496 119.296 119.921 123.044C118.4 126.63 116.227 129.889 113.456 132.66C110.686 135.43 107.426 137.603 103.841 139.124C100.092 140.754 96.1267 141.515 92.0524 141.515ZM92.0524 83.116C88.2497 83.116 84.5557 83.8766 81.0789 85.3433C77.7108 86.7557 74.723 88.7657 72.1154 91.3733C69.5079 93.9809 67.4979 96.9687 66.0854 100.337C64.6187 103.814 63.8581 107.508 63.8581 111.31C63.8581 115.113 64.6187 118.807 66.0854 122.284C67.4979 125.652 69.5079 128.64 72.1154 131.247C74.723 133.855 77.7108 135.865 81.0789 137.277C84.5557 138.744 88.2497 139.505 92.0524 139.505C95.8551 139.505 99.5491 138.744 103.026 137.277C106.394 135.865 109.382 133.855 111.989 131.247C114.597 128.64 116.607 125.652 118.019 122.284C119.486 118.807 120.247 115.113 120.247 111.31C120.247 107.508 119.486 103.814 118.019 100.337C116.607 96.9687 114.597 93.9809 111.989 91.3733C109.382 88.7657 106.394 86.7557 103.026 85.3433C99.5491 83.8766 95.8551 83.116 92.0524 83.116Z" fill="#1C1C1C"/>
<path d="M70.7574 123.751C70.4314 123.751 70.1598 123.588 69.9968 123.316C68.3671 120.382 67.335 117.232 66.9547 113.918C66.6287 110.713 66.846 107.508 67.7695 104.411C68.6387 101.315 70.1055 98.4354 72.1155 95.8279C74.1798 93.166 76.733 90.993 79.6665 89.309C82.6001 87.6249 85.8052 86.5928 89.119 86.1582C92.3241 85.7779 95.5835 85.9952 98.68 86.8101C101.794 87.6115 104.713 89.0344 107.263 90.993C109.925 93.003 112.098 95.5019 113.728 98.4355C113.945 98.87 113.836 99.4133 113.402 99.6306C112.967 99.8479 112.424 99.7392 112.207 99.3046C109.165 93.9265 104.221 90.1238 98.1911 88.4941C92.2154 86.8644 85.9138 87.6793 80.4271 90.7757C74.9947 93.8722 71.029 98.87 69.345 104.791C67.6609 110.767 68.3671 116.96 71.4093 122.338C71.6266 122.773 71.5179 123.316 71.0833 123.533C71.029 123.751 70.866 123.751 70.7574 123.751Z" fill="white"/>
<path d="M102.809 111.256C102.809 117.177 97.9738 122.012 92.0524 122.012C86.1311 122.012 81.2962 117.177 81.2962 111.256C81.2962 105.335 86.1311 100.5 92.0524 100.5C97.9738 100.5 102.809 105.335 102.809 111.256ZM68.856 167.427C67.6609 169.817 64.7274 170.85 62.2828 169.6C59.8925 168.405 58.9147 165.472 60.1098 163.027L73.4736 135.485C74.6687 133.094 76.2984 136.028 78.6887 137.223C81.0789 138.418 83.7408 138.038 82.5457 140.428L68.856 167.427Z" fill="#1C1C1C"/>
<path d="M57.6653 164.602C60.0556 165.689 63.6953 165.689 68.9648 162.375C74.1256 158.898 80.6988 167.536 75.1034 172.805C71.4094 176.282 57.774 181.66 49.897 174.761L57.6653 164.602Z" fill="#9270F4"/>
<path d="M59.6752 180.248C58.5344 180.248 57.3936 180.139 56.3071 179.976C53.265 179.487 50.6574 178.238 48.5388 176.391C47.6696 175.63 47.5609 174.272 48.3215 173.403C49.082 172.534 50.4401 172.425 51.3093 173.186C53.3193 174.978 57.122 176.825 63.6409 175.576C67.9868 174.761 72.0068 172.751 73.6365 171.23C74.6144 170.306 75.1033 169.274 75.1033 168.133C75.1033 167.101 74.723 166.015 74.0168 165.146C72.2241 162.918 70.4314 163.896 70.1055 164.113C70.1055 164.113 70.0511 164.113 70.0511 164.168C67.3893 165.852 64.836 166.884 62.5544 167.264C60.4358 167.59 58.4801 167.319 56.796 166.558C55.7096 166.069 55.275 164.82 55.7639 163.733C56.2528 162.647 57.5023 162.212 58.5887 162.701C59.5666 163.136 60.6531 163.244 61.9568 163.081C63.6952 162.81 65.6509 161.995 67.8239 160.637C69.4536 159.55 71.3549 159.224 73.2019 159.713C74.7773 160.148 76.2984 161.126 77.4392 162.538C78.743 164.168 79.4492 166.178 79.4492 168.188C79.3949 170.524 78.4714 172.642 76.6244 174.381C75.4836 175.467 73.7452 176.554 71.6809 177.477C69.4536 178.509 66.9547 179.324 64.5644 179.759C62.7717 180.085 61.1963 180.248 59.6752 180.248Z" fill="#1C1C1C"/>
<path d="M55.8182 168.948C55.275 170.361 62.3915 173.403 71.029 167.916C71.9525 167.373 71.7896 165.254 69.345 166.449C66.1398 168.133 64.4558 169.166 60.2185 169.22C56.3072 169.274 56.2528 167.916 55.8182 168.948ZM82.0568 198.718H54.4058C53.9169 198.718 53.5366 198.338 53.5366 197.849C53.5366 197.36 53.9169 196.98 54.4058 196.98H82.0568C82.5457 196.98 82.926 197.36 82.926 197.849C82.926 198.283 82.5457 198.718 82.0568 198.718ZM213.358 198.718H185.707C185.218 198.718 184.838 198.338 184.838 197.849C184.838 197.36 185.218 196.98 185.707 196.98H213.358C213.847 196.98 214.228 197.36 214.228 197.849C214.228 198.283 213.847 198.718 213.358 198.718Z" fill="white"/>
</svg>
