<svg width="32" height="28" viewBox="0 0 32 28" fill="none" xmlns="http://www.w3.org/2000/svg">
<path fill-rule="evenodd" clip-rule="evenodd" d="M16.0002 3.3607C15.8097 3.3607 15.6031 3.41403 14.5569 3.78767L11.5426 4.86422C8.35151 6.00391 6.10404 6.81004 4.63741 7.56871C3.07651 8.37614 3.05015 8.80427 3.05015 8.90527C3.05015 9.00628 3.07651 9.4344 4.63741 10.2418C6.10404 11.0005 8.35151 11.8066 11.5426 12.9463L14.5569 14.0229C15.6031 14.3965 15.8097 14.4498 16.0002 14.4498C16.1907 14.4498 16.3973 14.3965 17.4434 14.0229L20.5524 12.9125C22.5334 12.205 24.1612 11.6237 25.4752 11.0911C26.9173 10.5066 27.8539 10.0308 28.4176 9.59805C28.9493 9.18987 28.9502 8.98076 28.9502 8.90527C28.9502 8.80427 28.9238 8.37614 27.3629 7.56871C25.8963 6.81004 23.6488 6.00392 20.4577 4.86422L17.4434 3.78767C16.3972 3.41403 16.1907 3.3607 16.0002 3.3607ZM13.7559 1.03591C14.548 0.751837 15.2501 0.5 16.0002 0.5C16.7502 0.5 17.4524 0.751838 18.2444 1.03591C18.2977 1.05503 18.3514 1.07429 18.4056 1.09363L21.5362 2.21171C24.5851 3.30058 27.0177 4.16935 28.6773 5.02783C30.2636 5.84842 31.8109 6.9903 31.8109 8.90527C31.8109 10.2011 31.084 11.1575 30.1597 11.8671C29.4543 12.4087 28.5269 12.8936 27.4428 13.3674V16.0571C27.4428 16.1536 27.4428 16.2487 27.4429 16.3426C27.4435 18.7298 27.4439 20.2737 27.0228 21.5698C26.1739 24.1825 24.1255 26.2309 21.5127 27.0799C20.2166 27.501 18.6727 27.5006 16.2855 27.5C16.1916 27.4999 16.0965 27.4999 16 27.4999C15.9036 27.4999 15.8084 27.4999 15.7146 27.5C13.3273 27.5006 11.7834 27.501 10.4873 27.0799C7.8746 26.2309 5.82619 24.1825 4.97727 21.5698C4.55614 20.2737 4.55655 18.7298 4.55718 16.3426C4.55721 16.2487 4.55723 16.1536 4.55723 16.0571V13.3654C4.10799 13.1691 3.696 12.9756 3.32305 12.7827C1.73672 11.9621 0.189453 10.8202 0.189453 8.90527C0.189453 6.9903 1.73672 5.84842 3.32305 5.02783C4.98263 4.16935 7.41524 3.30058 10.4642 2.21171L13.5948 1.09363C13.6489 1.07429 13.7026 1.05503 13.7559 1.03591ZM7.41793 14.4985V16.0571C7.41793 18.8307 7.43558 19.8783 7.69796 20.6858C8.2639 22.4276 9.62951 23.7932 11.3713 24.3592C12.1788 24.6216 13.2264 24.6392 16 24.6392C18.7736 24.6392 19.8212 24.6216 20.6287 24.3592C22.3705 23.7932 23.7362 22.4276 24.3021 20.6858C24.5645 19.8783 24.5821 18.8307 24.5821 16.0571V14.4992C23.6638 14.839 22.654 15.1996 21.5599 15.5904L18.4056 16.7169C18.3514 16.7363 18.2977 16.7555 18.2444 16.7746C17.4524 17.0587 16.7502 17.3105 16.0002 17.3105C15.2501 17.3105 14.5479 17.0587 13.7559 16.7746C13.7026 16.7555 13.6489 16.7363 13.5948 16.7169L10.4642 15.5988C9.36645 15.2068 8.34858 14.8433 7.41793 14.4985Z" fill="white"/>
<path fill-rule="evenodd" clip-rule="evenodd" d="M10.2625 2.51925L13.3662 1.41075C13.4135 1.39385 13.4603 1.37711 13.5065 1.36058C14.3215 1.06873 14.9659 0.837951 15.6514 0.837952C16.3368 0.837952 16.9813 1.06874 17.7963 1.36058C17.8425 1.37712 17.8892 1.39385 17.9365 1.41075L21.0403 2.51925C24.112 3.61629 26.5262 4.47849 28.1642 5.3258C29.7474 6.14475 31.1045 7.19741 31.1045 8.88564C31.1045 10.5739 29.7474 11.6265 28.1642 12.4455C26.5262 13.2928 24.112 14.155 21.0403 15.252L17.9365 16.3605C17.8892 16.3774 17.8425 16.3942 17.7963 16.4107C16.9813 16.7025 16.3368 16.9333 15.6514 16.9333C14.9659 16.9333 14.3215 16.7025 13.5065 16.4107C13.4603 16.3942 13.4135 16.3774 13.3662 16.3605L10.2624 15.252C7.19071 14.155 4.77655 13.2928 3.13855 12.4455C1.55539 11.6265 0.198243 10.5739 0.198242 8.88564C0.198242 7.19741 1.55539 6.14475 3.13855 5.3258C4.77655 4.47849 7.19072 3.61629 10.2625 2.51925ZM4.12432 7.23146C2.56024 8.04054 2.34377 8.55788 2.34377 8.88564C2.34377 9.21339 2.56024 9.73073 4.12432 10.5398C5.61769 11.3123 7.89341 12.1277 11.0735 13.2634L14.0879 14.34C15.1106 14.7053 15.3846 14.7878 15.6514 14.7878C15.9181 14.7878 16.1921 14.7053 17.2149 14.34L20.2292 13.2634C23.4094 12.1277 25.6851 11.3123 27.1784 10.5398C28.7425 9.73073 28.959 9.21339 28.959 8.88564C28.959 8.55788 28.7425 8.04054 27.1784 7.23146C25.6851 6.45896 23.4094 5.64361 20.2292 4.50783L17.2149 3.43128C16.1921 3.066 15.9181 2.98348 15.6514 2.98348C15.3846 2.98348 15.1106 3.066 14.0879 3.43128L11.0735 4.50783C7.89341 5.64361 5.61769 6.45896 4.12432 7.23146ZM1.34773 19.9708C0.755264 19.9708 0.198242 19.5073 0.198242 18.9148V13.9002V8.88564C0.198242 8.29317 0.755264 7.81288 1.34773 7.81288C1.9402 7.81288 2.34377 8.29317 2.34377 8.88564L2.4205 10.64V18.8981C2.4205 19.4906 1.9402 19.9708 1.34773 19.9708Z" fill="white"/>
</svg>
