<svg width="26" height="26" viewBox="0 0 26 26" fill="none" xmlns="http://www.w3.org/2000/svg">
<path fill-rule="evenodd" clip-rule="evenodd" d="M24.56 13.2738C24.56 12.4199 24.4834 11.5989 24.3411 10.8107H13V15.4686H19.4806C19.2015 16.9739 18.3531 18.2492 17.0778 19.103V22.1244H20.9694C23.2464 20.0281 24.56 16.941 24.56 13.2738Z" fill="#4285F4"/>
<path fill-rule="evenodd" clip-rule="evenodd" d="M12.9999 25.0417C16.2512 25.0417 18.977 23.9635 20.9693 22.1244L17.0777 19.103C15.9994 19.8255 14.6201 20.2524 12.9999 20.2524C9.86359 20.2524 7.20894 18.1342 6.26203 15.288H2.23901V18.4079C4.22042 22.3433 8.2927 25.0417 12.9999 25.0417Z" fill="#34A853"/>
<path fill-rule="evenodd" clip-rule="evenodd" d="M6.26207 15.288C6.02123 14.5655 5.8844 13.7938 5.8844 13.0001C5.8844 12.2064 6.02123 11.4347 6.26207 10.7122V7.59229H2.23905C1.4235 9.21791 0.958252 11.057 0.958252 13.0001C0.958252 14.9432 1.4235 16.7823 2.23905 18.4079L6.26207 15.288Z" fill="#FBBC05"/>
<path fill-rule="evenodd" clip-rule="evenodd" d="M12.9999 5.74768C14.7678 5.74768 16.3552 6.35524 17.6031 7.54846L21.0569 4.09469C18.9715 2.1516 16.2457 0.958374 12.9999 0.958374C8.2927 0.958374 4.22042 3.65681 2.23901 7.59225L6.26203 10.7121C7.20895 7.86592 9.86359 5.74768 12.9999 5.74768Z" fill="#EA4335"/>
</svg>
