<svg width="265" height="48" viewBox="0 0 265 48" fill="none" xmlns="http://www.w3.org/2000/svg">
<path d="M3.96338 10C3.96338 4.47715 8.44053 0 13.9634 0H37.9634C43.4862 0 47.9634 4.47715 47.9634 10V34C47.9634 39.5228 43.4862 44 37.9634 44H13.9634C8.44053 44 3.96338 39.5228 3.96338 34V10Z" fill="white"/>
<path d="M23.2133 33.0001V15.1251H17.1633V11.0001H34.7633V15.1251H28.7133V33.0001H23.2133Z" fill="#1C1C1C"/>
<path d="M40.7088 38.7818C40.0906 38.7818 39.427 38.7545 38.7179 38.7C38.0088 38.6455 37.2361 38.5636 36.3997 38.4545L36.6724 34.6364C37.4543 34.7636 38.1452 34.8636 38.7452 34.9364C39.3634 35.0273 39.8997 35.0727 40.3543 35.0727C41.4088 35.0727 42.1724 34.8727 42.6452 34.4727C43.1361 34.0727 43.5543 33.2727 43.8997 32.0727L43.9543 31.9091H40.4906L36.0452 16.6364H41.5815L44.8815 28.7455L48.4815 16.6364H53.7997L48.7543 32.5636C48.027 34.8909 47.0724 36.5091 45.8906 37.4182C44.7088 38.3273 42.9815 38.7818 40.7088 38.7818ZM64.1467 29.3727C64.9104 29.3727 65.4922 29.1909 65.8922 28.8273C66.2922 28.4636 66.4922 27.8545 66.4922 27V22.8818C66.4922 22.0455 66.3104 21.4364 65.9467 21.0545C65.6013 20.6545 65.1467 20.4545 64.5831 20.4545C64.074 20.4545 63.574 20.5727 63.0831 20.8091C62.6104 21.0273 62.1104 21.3636 61.5831 21.8182V28.6636C62.0376 28.9 62.4467 29.0818 62.8104 29.2091C63.1922 29.3182 63.6376 29.3727 64.1467 29.3727ZM65.1831 33.1636C64.5649 33.1636 63.9376 33.1091 63.3013 33C62.6649 32.8909 62.0922 32.7364 61.5831 32.5364V38.4545H56.1286V16.6364H61.5831V19.6364H62.4013C62.8013 18.6364 63.4376 17.8455 64.3104 17.2636C65.2013 16.6636 66.2104 16.3636 67.3376 16.3636C68.7558 16.3636 69.874 16.8545 70.6922 17.8364C71.5286 18.8182 71.9467 20.1455 71.9467 21.8182V27.0273C71.9467 28.9182 71.3376 30.4182 70.1195 31.5273C68.9013 32.6182 67.2558 33.1636 65.1831 33.1636ZM75.5028 33V29.1818H80.4119V20.4545H75.5028V16.6364H85.8665V29.1818H90.7756V33H75.5028ZM83.4392 14.1818C82.4028 14.1818 81.5574 14.0273 80.9028 13.7182C80.2665 13.4091 79.9483 12.8727 79.9483 12.1091V11.7C79.9483 10.9182 80.2665 10.3636 80.9028 10.0364C81.5574 9.70909 82.4028 9.54545 83.4392 9.54545C84.4756 9.54545 85.3119 9.70909 85.9483 10.0364C86.6028 10.3636 86.9301 10.9182 86.9301 11.7V12.1091C86.9301 12.8727 86.6028 13.4091 85.9483 13.7182C85.2937 14.0273 84.4574 14.1818 83.4392 14.1818ZM94.3317 33V16.6364H99.7862V19.6364H100.604C101.041 18.6 101.723 17.8 102.65 17.2364C103.577 16.6545 104.65 16.3636 105.868 16.3636C107.232 16.3636 108.286 16.8 109.032 17.6727C109.777 18.5273 110.15 19.7364 110.15 21.3V33H104.695V22.2545C104.695 21.6727 104.55 21.2273 104.259 20.9182C103.986 20.6091 103.595 20.4545 103.086 20.4545C102.523 20.4545 101.941 20.6091 101.341 20.9182C100.741 21.2091 100.223 21.6545 99.7862 22.2545V33H94.3317ZM130.07 33.7091C130.07 35.2 129.497 36.4091 128.351 37.3364C127.224 38.2636 125.688 38.7273 123.742 38.7273H119.051C116.888 38.7273 115.27 38.3455 114.197 37.5818C113.142 36.8364 112.615 35.9455 112.615 34.9091C112.615 33.9818 112.906 33.2455 113.488 32.7C114.07 32.1364 114.779 31.8091 115.615 31.7182V31.1727C114.942 30.9545 114.37 30.6364 113.897 30.2182C113.442 29.8 113.215 29.1545 113.215 28.2818C113.215 27.2636 113.579 26.4455 114.306 25.8273C115.033 25.1909 115.915 24.8091 116.951 24.6818V24.1364C116.006 23.9 115.27 23.5182 114.742 22.9909C114.233 22.4636 113.979 21.7909 113.979 20.9727V20.9182C113.979 19.5182 114.588 18.4545 115.806 17.7273C117.042 17 118.533 16.6364 120.279 16.6364H130.07V19.6364L125.597 19.1455V19.6909C126.27 19.8727 126.824 20.2182 127.261 20.7273C127.697 21.2182 127.915 21.7818 127.915 22.4182V22.5273C127.915 23.8727 127.297 24.9091 126.061 25.6364C124.824 26.3455 123.306 26.7 121.506 26.7H119.106C118.506 26.7 118.033 26.8 117.688 27C117.342 27.2 117.17 27.5273 117.17 27.9818C117.17 28.4364 117.342 28.7636 117.688 28.9636C118.033 29.1636 118.506 29.2636 119.106 29.2636H123.906C125.797 29.2636 127.297 29.6364 128.406 30.3818C129.515 31.1091 130.07 32.2182 130.07 33.7091ZM120.933 24.2455C121.661 24.2455 122.179 24.0909 122.488 23.7818C122.815 23.4727 122.979 23.0636 122.979 22.5545V21.1909C122.979 20.7364 122.815 20.3545 122.488 20.0455C122.179 19.7364 121.661 19.5818 120.933 19.5818C120.206 19.5818 119.679 19.7364 119.351 20.0455C119.042 20.3545 118.888 20.7364 118.888 21.1909V22.5545C118.888 23.0636 119.042 23.4727 119.351 23.7818C119.661 24.0909 120.188 24.2455 120.933 24.2455ZM119.106 35.7273H123.688C124.27 35.7273 124.751 35.6455 125.133 35.4818C125.515 35.3182 125.706 34.9364 125.706 34.3364C125.706 33.7364 125.515 33.3545 125.133 33.1909C124.751 33.0455 124.27 32.9727 123.688 32.9727H117.742V34.2273C117.742 34.7 117.851 35.0636 118.07 35.3182C118.306 35.5909 118.651 35.7273 119.106 35.7273ZM137.717 33V15.2727H131.717V11.1818H149.171V15.2727H143.171V33H137.717ZM152.182 33V16.6364H157.636V19.6364H158.455C158.855 18.4909 159.491 17.6636 160.364 17.1545C161.236 16.6273 162.264 16.3636 163.445 16.3636C164.864 16.3636 165.927 16.7727 166.636 17.5909C167.364 18.3909 167.727 19.5273 167.727 21V24.0545H162.818V22.5545C162.818 21.9182 162.673 21.4091 162.382 21.0273C162.109 20.6455 161.609 20.4545 160.882 20.4545C160.264 20.4545 159.664 20.6 159.082 20.8909C158.5 21.1636 158.018 21.6545 157.636 22.3636V33H152.182ZM176.82 30C177.383 30 177.929 29.9273 178.456 29.7818C178.983 29.6364 179.502 29.4455 180.011 29.2091V26.5364H176.738C176.174 26.5364 175.756 26.6636 175.483 26.9182C175.229 27.1545 175.102 27.6455 175.102 28.3909C175.102 28.9182 175.238 29.3182 175.511 29.5909C175.783 29.8636 176.22 30 176.82 30ZM175.374 33.2727C173.792 33.2727 172.529 32.8455 171.583 31.9909C170.656 31.1364 170.192 29.9727 170.192 28.5C170.192 26.9545 170.738 25.7909 171.829 25.0091C172.92 24.2091 174.42 23.8091 176.329 23.8091H180.011V21.9545C180.011 21.1909 179.811 20.6818 179.411 20.4273C179.011 20.1545 178.42 20.0182 177.638 20.0182C176.82 20.0182 176.211 20.1818 175.811 20.5091C175.429 20.8182 175.156 21.4 174.992 22.2545L170.602 21.5727C171.002 19.6273 171.729 18.2727 172.783 17.5091C173.856 16.7455 175.538 16.3636 177.829 16.3636C180.32 16.3636 182.165 16.8273 183.365 17.7545C184.583 18.6636 185.192 20.0545 185.192 21.9273V27.8182C185.192 28.5273 185.402 28.9636 185.82 29.1273C186.256 29.2727 186.865 29.3 187.647 29.2091V32.8636C186.12 33.2273 184.892 33.2182 183.965 32.8364C183.038 32.4545 182.392 31.6909 182.029 30.5455H181.211C180.629 31.2727 179.82 31.9091 178.783 32.4545C177.765 33 176.629 33.2727 175.374 33.2727ZM190.112 33V29.1818H195.021V20.4545H190.112V16.6364H200.476V29.1818H205.385V33H190.112ZM198.049 14.1818C197.012 14.1818 196.167 14.0273 195.512 13.7182C194.876 13.4091 194.558 12.8727 194.558 12.1091V11.7C194.558 10.9182 194.876 10.3636 195.512 10.0364C196.167 9.70909 197.012 9.54545 198.049 9.54545C199.085 9.54545 199.921 9.70909 200.558 10.0364C201.212 10.3636 201.539 10.9182 201.539 11.7V12.1091C201.539 12.8727 201.212 13.4091 200.558 13.7182C199.903 14.0273 199.067 14.1818 198.049 14.1818ZM208.941 33V16.6364H214.396V19.6364H215.214C215.65 18.6 216.332 17.8 217.259 17.2364C218.187 16.6545 219.259 16.3636 220.477 16.3636C221.841 16.3636 222.896 16.8 223.641 17.6727C224.387 18.5273 224.759 19.7364 224.759 21.3V33H219.305V22.2545C219.305 21.6727 219.159 21.2273 218.868 20.9182C218.596 20.6091 218.205 20.4545 217.696 20.4545C217.132 20.4545 216.55 20.6091 215.95 20.9182C215.35 21.2091 214.832 21.6545 214.396 22.2545V33H208.941ZM244.243 29.1273C243.515 30.7091 242.57 31.8 241.406 32.4C240.243 32.9818 238.461 33.2727 236.061 33.2727C233.806 33.2727 231.906 32.7545 230.361 31.7182C228.815 30.6818 228.043 29.1091 228.043 27V22.6636C228.043 20.7 228.743 19.1636 230.143 18.0545C231.543 16.9273 233.488 16.3636 235.979 16.3636C238.452 16.3636 240.379 16.9273 241.761 18.0545C243.161 19.1636 243.861 20.7182 243.861 22.7182V25.9091H233.497V27.3818C233.497 28.1455 233.697 28.7545 234.097 29.2091C234.515 29.6455 235.224 29.8636 236.224 29.8636C237.006 29.8636 237.679 29.7455 238.243 29.5091C238.824 29.2545 239.334 28.7364 239.77 27.9545L244.243 29.1273ZM233.497 22.1182V23.1818H238.406V22.3636C238.406 21.3455 238.243 20.6364 237.915 20.2364C237.588 19.8364 236.934 19.6364 235.952 19.6364C234.97 19.6364 234.315 19.8273 233.988 20.2091C233.661 20.5727 233.497 21.2091 233.497 22.1182ZM247.69 33V16.6364H253.144V19.6364H253.962C254.362 18.4909 254.999 17.6636 255.871 17.1545C256.744 16.6273 257.771 16.3636 258.953 16.3636C260.371 16.3636 261.435 16.7727 262.144 17.5909C262.871 18.3909 263.235 19.5273 263.235 21V24.0545H258.326V22.5545C258.326 21.9182 258.181 21.4091 257.89 21.0273C257.617 20.6455 257.117 20.4545 256.39 20.4545C255.771 20.4545 255.171 20.6 254.59 20.8909C254.008 21.1636 253.526 21.6545 253.144 22.3636V33H247.69Z" fill="white"/>
<mask id="mask0_621_803" style="mask-type:alpha" maskUnits="userSpaceOnUse" x="36" y="9" width="228" height="30">
<path d="M40.7088 38.7818C40.0906 38.7818 39.427 38.7545 38.7179 38.7C38.0088 38.6455 37.2361 38.5636 36.3997 38.4545L36.6724 34.6364C37.4543 34.7636 38.1452 34.8636 38.7452 34.9364C39.3634 35.0273 39.8997 35.0727 40.3543 35.0727C41.4088 35.0727 42.1724 34.8727 42.6452 34.4727C43.1361 34.0727 43.5543 33.2727 43.8997 32.0727L43.9543 31.9091H40.4906L36.0452 16.6364H41.5815L44.8815 28.7455L48.4815 16.6364H53.7997L48.7543 32.5636C48.027 34.8909 47.0724 36.5091 45.8906 37.4182C44.7088 38.3273 42.9815 38.7818 40.7088 38.7818ZM64.1467 29.3727C64.9104 29.3727 65.4922 29.1909 65.8922 28.8273C66.2922 28.4636 66.4922 27.8545 66.4922 27V22.8818C66.4922 22.0455 66.3104 21.4364 65.9467 21.0545C65.6013 20.6545 65.1467 20.4545 64.5831 20.4545C64.074 20.4545 63.574 20.5727 63.0831 20.8091C62.6104 21.0273 62.1104 21.3636 61.5831 21.8182V28.6636C62.0376 28.9 62.4467 29.0818 62.8104 29.2091C63.1922 29.3182 63.6376 29.3727 64.1467 29.3727ZM65.1831 33.1636C64.5649 33.1636 63.9376 33.1091 63.3013 33C62.6649 32.8909 62.0922 32.7364 61.5831 32.5364V38.4545H56.1286V16.6364H61.5831V19.6364H62.4013C62.8013 18.6364 63.4376 17.8455 64.3104 17.2636C65.2013 16.6636 66.2104 16.3636 67.3376 16.3636C68.7558 16.3636 69.874 16.8545 70.6922 17.8364C71.5286 18.8182 71.9467 20.1455 71.9467 21.8182V27.0273C71.9467 28.9182 71.3376 30.4182 70.1195 31.5273C68.9013 32.6182 67.2558 33.1636 65.1831 33.1636ZM75.5028 33V29.1818H80.4119V20.4545H75.5028V16.6364H85.8665V29.1818H90.7756V33H75.5028ZM83.4392 14.1818C82.4028 14.1818 81.5574 14.0273 80.9028 13.7182C80.2665 13.4091 79.9483 12.8727 79.9483 12.1091V11.7C79.9483 10.9182 80.2665 10.3636 80.9028 10.0364C81.5574 9.70909 82.4028 9.54545 83.4392 9.54545C84.4756 9.54545 85.3119 9.70909 85.9483 10.0364C86.6028 10.3636 86.9301 10.9182 86.9301 11.7V12.1091C86.9301 12.8727 86.6028 13.4091 85.9483 13.7182C85.2937 14.0273 84.4574 14.1818 83.4392 14.1818ZM94.3317 33V16.6364H99.7862V19.6364H100.604C101.041 18.6 101.723 17.8 102.65 17.2364C103.577 16.6545 104.65 16.3636 105.868 16.3636C107.232 16.3636 108.286 16.8 109.032 17.6727C109.777 18.5273 110.15 19.7364 110.15 21.3V33H104.695V22.2545C104.695 21.6727 104.55 21.2273 104.259 20.9182C103.986 20.6091 103.595 20.4545 103.086 20.4545C102.523 20.4545 101.941 20.6091 101.341 20.9182C100.741 21.2091 100.223 21.6545 99.7862 22.2545V33H94.3317ZM130.07 33.7091C130.07 35.2 129.497 36.4091 128.351 37.3364C127.224 38.2636 125.688 38.7273 123.742 38.7273H119.051C116.888 38.7273 115.27 38.3455 114.197 37.5818C113.142 36.8364 112.615 35.9455 112.615 34.9091C112.615 33.9818 112.906 33.2455 113.488 32.7C114.07 32.1364 114.779 31.8091 115.615 31.7182V31.1727C114.942 30.9545 114.37 30.6364 113.897 30.2182C113.442 29.8 113.215 29.1545 113.215 28.2818C113.215 27.2636 113.579 26.4455 114.306 25.8273C115.033 25.1909 115.915 24.8091 116.951 24.6818V24.1364C116.006 23.9 115.27 23.5182 114.742 22.9909C114.233 22.4636 113.979 21.7909 113.979 20.9727V20.9182C113.979 19.5182 114.588 18.4545 115.806 17.7273C117.042 17 118.533 16.6364 120.279 16.6364H130.07V19.6364L125.597 19.1455V19.6909C126.27 19.8727 126.824 20.2182 127.261 20.7273C127.697 21.2182 127.915 21.7818 127.915 22.4182V22.5273C127.915 23.8727 127.297 24.9091 126.061 25.6364C124.824 26.3455 123.306 26.7 121.506 26.7H119.106C118.506 26.7 118.033 26.8 117.688 27C117.342 27.2 117.17 27.5273 117.17 27.9818C117.17 28.4364 117.342 28.7636 117.688 28.9636C118.033 29.1636 118.506 29.2636 119.106 29.2636H123.906C125.797 29.2636 127.297 29.6364 128.406 30.3818C129.515 31.1091 130.07 32.2182 130.07 33.7091ZM120.933 24.2455C121.661 24.2455 122.179 24.0909 122.488 23.7818C122.815 23.4727 122.979 23.0636 122.979 22.5545V21.1909C122.979 20.7364 122.815 20.3545 122.488 20.0455C122.179 19.7364 121.661 19.5818 120.933 19.5818C120.206 19.5818 119.679 19.7364 119.351 20.0455C119.042 20.3545 118.888 20.7364 118.888 21.1909V22.5545C118.888 23.0636 119.042 23.4727 119.351 23.7818C119.661 24.0909 120.188 24.2455 120.933 24.2455ZM119.106 35.7273H123.688C124.27 35.7273 124.751 35.6455 125.133 35.4818C125.515 35.3182 125.706 34.9364 125.706 34.3364C125.706 33.7364 125.515 33.3545 125.133 33.1909C124.751 33.0455 124.27 32.9727 123.688 32.9727H117.742V34.2273C117.742 34.7 117.851 35.0636 118.07 35.3182C118.306 35.5909 118.651 35.7273 119.106 35.7273ZM137.717 33V15.2727H131.717V11.1818H149.171V15.2727H143.171V33H137.717ZM152.182 33V16.6364H157.636V19.6364H158.455C158.855 18.4909 159.491 17.6636 160.364 17.1545C161.236 16.6273 162.264 16.3636 163.445 16.3636C164.864 16.3636 165.927 16.7727 166.636 17.5909C167.364 18.3909 167.727 19.5273 167.727 21V24.0545H162.818V22.5545C162.818 21.9182 162.673 21.4091 162.382 21.0273C162.109 20.6455 161.609 20.4545 160.882 20.4545C160.264 20.4545 159.664 20.6 159.082 20.8909C158.5 21.1636 158.018 21.6545 157.636 22.3636V33H152.182ZM176.82 30C177.383 30 177.929 29.9273 178.456 29.7818C178.983 29.6364 179.502 29.4455 180.011 29.2091V26.5364H176.738C176.174 26.5364 175.756 26.6636 175.483 26.9182C175.229 27.1545 175.102 27.6455 175.102 28.3909C175.102 28.9182 175.238 29.3182 175.511 29.5909C175.783 29.8636 176.22 30 176.82 30ZM175.374 33.2727C173.792 33.2727 172.529 32.8455 171.583 31.9909C170.656 31.1364 170.192 29.9727 170.192 28.5C170.192 26.9545 170.738 25.7909 171.829 25.0091C172.92 24.2091 174.42 23.8091 176.329 23.8091H180.011V21.9545C180.011 21.1909 179.811 20.6818 179.411 20.4273C179.011 20.1545 178.42 20.0182 177.638 20.0182C176.82 20.0182 176.211 20.1818 175.811 20.5091C175.429 20.8182 175.156 21.4 174.992 22.2545L170.602 21.5727C171.002 19.6273 171.729 18.2727 172.783 17.5091C173.856 16.7455 175.538 16.3636 177.829 16.3636C180.32 16.3636 182.165 16.8273 183.365 17.7545C184.583 18.6636 185.192 20.0545 185.192 21.9273V27.8182C185.192 28.5273 185.402 28.9636 185.82 29.1273C186.256 29.2727 186.865 29.3 187.647 29.2091V32.8636C186.12 33.2273 184.892 33.2182 183.965 32.8364C183.038 32.4545 182.392 31.6909 182.029 30.5455H181.211C180.629 31.2727 179.82 31.9091 178.783 32.4545C177.765 33 176.629 33.2727 175.374 33.2727ZM190.112 33V29.1818H195.021V20.4545H190.112V16.6364H200.476V29.1818H205.385V33H190.112ZM198.049 14.1818C197.012 14.1818 196.167 14.0273 195.512 13.7182C194.876 13.4091 194.558 12.8727 194.558 12.1091V11.7C194.558 10.9182 194.876 10.3636 195.512 10.0364C196.167 9.70909 197.012 9.54545 198.049 9.54545C199.085 9.54545 199.921 9.70909 200.558 10.0364C201.212 10.3636 201.539 10.9182 201.539 11.7V12.1091C201.539 12.8727 201.212 13.4091 200.558 13.7182C199.903 14.0273 199.067 14.1818 198.049 14.1818ZM208.941 33V16.6364H214.396V19.6364H215.214C215.65 18.6 216.332 17.8 217.259 17.2364C218.187 16.6545 219.259 16.3636 220.477 16.3636C221.841 16.3636 222.896 16.8 223.641 17.6727C224.387 18.5273 224.759 19.7364 224.759 21.3V33H219.305V22.2545C219.305 21.6727 219.159 21.2273 218.868 20.9182C218.596 20.6091 218.205 20.4545 217.696 20.4545C217.132 20.4545 216.55 20.6091 215.95 20.9182C215.35 21.2091 214.832 21.6545 214.396 22.2545V33H208.941ZM244.243 29.1273C243.515 30.7091 242.57 31.8 241.406 32.4C240.243 32.9818 238.461 33.2727 236.061 33.2727C233.806 33.2727 231.906 32.7545 230.361 31.7182C228.815 30.6818 228.043 29.1091 228.043 27V22.6636C228.043 20.7 228.743 19.1636 230.143 18.0545C231.543 16.9273 233.488 16.3636 235.979 16.3636C238.452 16.3636 240.379 16.9273 241.761 18.0545C243.161 19.1636 243.861 20.7182 243.861 22.7182V25.9091H233.497V27.3818C233.497 28.1455 233.697 28.7545 234.097 29.2091C234.515 29.6455 235.224 29.8636 236.224 29.8636C237.006 29.8636 237.679 29.7455 238.243 29.5091C238.824 29.2545 239.334 28.7364 239.77 27.9545L244.243 29.1273ZM233.497 22.1182V23.1818H238.406V22.3636C238.406 21.3455 238.243 20.6364 237.915 20.2364C237.588 19.8364 236.934 19.6364 235.952 19.6364C234.97 19.6364 234.315 19.8273 233.988 20.2091C233.661 20.5727 233.497 21.2091 233.497 22.1182ZM247.69 33V16.6364H253.144V19.6364H253.962C254.362 18.4909 254.999 17.6636 255.871 17.1545C256.744 16.6273 257.771 16.3636 258.953 16.3636C260.371 16.3636 261.435 16.7727 262.144 17.5909C262.871 18.3909 263.235 19.5273 263.235 21V24.0545H258.326V22.5545C258.326 21.9182 258.181 21.4091 257.89 21.0273C257.617 20.6455 257.117 20.4545 256.39 20.4545C255.771 20.4545 255.171 20.6 254.59 20.8909C254.008 21.1636 253.526 21.6545 253.144 22.3636V33H247.69Z" fill="white"/>
</mask>
<g mask="url(#mask0_621_803)">
<path d="M4 -1H48.0367V43.0367H4V-1Z" fill="#1C1C1C"/>
</g>
</svg>
