<svg width="266" height="48" viewBox="0 0 266 48" fill="none" xmlns="http://www.w3.org/2000/svg">
<path d="M4.46338 10C4.46338 4.47715 8.94053 0 14.4634 0H38.4634C43.9862 0 48.4634 4.47715 48.4634 10V34C48.4634 39.5228 43.9862 44 38.4634 44H14.4634C8.94053 44 4.46338 39.5228 4.46338 34V10Z" fill="#1C1C1C"/>
<path d="M23.7131 33.0001V15.1251H17.6631V11.0001H35.2631V15.1251H29.2131V33.0001H23.7131Z" fill="white"/>
<path d="M41.2088 38.7818C40.5906 38.7818 39.927 38.7545 39.2179 38.7C38.5088 38.6455 37.7361 38.5636 36.8997 38.4545L37.1724 34.6364C37.9543 34.7636 38.6452 34.8636 39.2452 34.9364C39.8634 35.0273 40.3997 35.0727 40.8543 35.0727C41.9088 35.0727 42.6724 34.8727 43.1452 34.4727C43.6361 34.0727 44.0543 33.2727 44.3997 32.0727L44.4543 31.9091H40.9906L36.5452 16.6364H42.0815L45.3815 28.7455L48.9815 16.6364H54.2997L49.2543 32.5636C48.527 34.8909 47.5724 36.5091 46.3906 37.4182C45.2088 38.3273 43.4815 38.7818 41.2088 38.7818ZM64.6467 29.3727C65.4104 29.3727 65.9922 29.1909 66.3922 28.8273C66.7922 28.4636 66.9922 27.8545 66.9922 27V22.8818C66.9922 22.0455 66.8104 21.4364 66.4467 21.0545C66.1013 20.6545 65.6467 20.4545 65.0831 20.4545C64.574 20.4545 64.074 20.5727 63.5831 20.8091C63.1104 21.0273 62.6104 21.3636 62.0831 21.8182V28.6636C62.5376 28.9 62.9467 29.0818 63.3104 29.2091C63.6922 29.3182 64.1376 29.3727 64.6467 29.3727ZM65.6831 33.1636C65.0649 33.1636 64.4376 33.1091 63.8013 33C63.1649 32.8909 62.5922 32.7364 62.0831 32.5364V38.4545H56.6286V16.6364H62.0831V19.6364H62.9013C63.3013 18.6364 63.9376 17.8455 64.8104 17.2636C65.7013 16.6636 66.7104 16.3636 67.8376 16.3636C69.2558 16.3636 70.374 16.8545 71.1922 17.8364C72.0286 18.8182 72.4467 20.1455 72.4467 21.8182V27.0273C72.4467 28.9182 71.8376 30.4182 70.6195 31.5273C69.4013 32.6182 67.7558 33.1636 65.6831 33.1636ZM76.0028 33V29.1818H80.9119V20.4545H76.0028V16.6364H86.3665V29.1818H91.2756V33H76.0028ZM83.9392 14.1818C82.9028 14.1818 82.0574 14.0273 81.4028 13.7182C80.7665 13.4091 80.4483 12.8727 80.4483 12.1091V11.7C80.4483 10.9182 80.7665 10.3636 81.4028 10.0364C82.0574 9.70909 82.9028 9.54545 83.9392 9.54545C84.9756 9.54545 85.8119 9.70909 86.4483 10.0364C87.1028 10.3636 87.4301 10.9182 87.4301 11.7V12.1091C87.4301 12.8727 87.1028 13.4091 86.4483 13.7182C85.7937 14.0273 84.9574 14.1818 83.9392 14.1818ZM94.8317 33V16.6364H100.286V19.6364H101.104C101.541 18.6 102.223 17.8 103.15 17.2364C104.077 16.6545 105.15 16.3636 106.368 16.3636C107.732 16.3636 108.786 16.8 109.532 17.6727C110.277 18.5273 110.65 19.7364 110.65 21.3V33H105.195V22.2545C105.195 21.6727 105.05 21.2273 104.759 20.9182C104.486 20.6091 104.095 20.4545 103.586 20.4545C103.023 20.4545 102.441 20.6091 101.841 20.9182C101.241 21.2091 100.723 21.6545 100.286 22.2545V33H94.8317ZM130.57 33.7091C130.57 35.2 129.997 36.4091 128.851 37.3364C127.724 38.2636 126.188 38.7273 124.242 38.7273H119.551C117.388 38.7273 115.77 38.3455 114.697 37.5818C113.642 36.8364 113.115 35.9455 113.115 34.9091C113.115 33.9818 113.406 33.2455 113.988 32.7C114.57 32.1364 115.279 31.8091 116.115 31.7182V31.1727C115.442 30.9545 114.87 30.6364 114.397 30.2182C113.942 29.8 113.715 29.1545 113.715 28.2818C113.715 27.2636 114.079 26.4455 114.806 25.8273C115.533 25.1909 116.415 24.8091 117.451 24.6818V24.1364C116.506 23.9 115.77 23.5182 115.242 22.9909C114.733 22.4636 114.479 21.7909 114.479 20.9727V20.9182C114.479 19.5182 115.088 18.4545 116.306 17.7273C117.542 17 119.033 16.6364 120.779 16.6364H130.57V19.6364L126.097 19.1455V19.6909C126.77 19.8727 127.324 20.2182 127.761 20.7273C128.197 21.2182 128.415 21.7818 128.415 22.4182V22.5273C128.415 23.8727 127.797 24.9091 126.561 25.6364C125.324 26.3455 123.806 26.7 122.006 26.7H119.606C119.006 26.7 118.533 26.8 118.188 27C117.842 27.2 117.67 27.5273 117.67 27.9818C117.67 28.4364 117.842 28.7636 118.188 28.9636C118.533 29.1636 119.006 29.2636 119.606 29.2636H124.406C126.297 29.2636 127.797 29.6364 128.906 30.3818C130.015 31.1091 130.57 32.2182 130.57 33.7091ZM121.433 24.2455C122.161 24.2455 122.679 24.0909 122.988 23.7818C123.315 23.4727 123.479 23.0636 123.479 22.5545V21.1909C123.479 20.7364 123.315 20.3545 122.988 20.0455C122.679 19.7364 122.161 19.5818 121.433 19.5818C120.706 19.5818 120.179 19.7364 119.851 20.0455C119.542 20.3545 119.388 20.7364 119.388 21.1909V22.5545C119.388 23.0636 119.542 23.4727 119.851 23.7818C120.161 24.0909 120.688 24.2455 121.433 24.2455ZM119.606 35.7273H124.188C124.77 35.7273 125.251 35.6455 125.633 35.4818C126.015 35.3182 126.206 34.9364 126.206 34.3364C126.206 33.7364 126.015 33.3545 125.633 33.1909C125.251 33.0455 124.77 32.9727 124.188 32.9727H118.242V34.2273C118.242 34.7 118.351 35.0636 118.57 35.3182C118.806 35.5909 119.151 35.7273 119.606 35.7273ZM138.217 33V15.2727H132.217V11.1818H149.671V15.2727H143.671V33H138.217ZM152.682 33V16.6364H158.136V19.6364H158.955C159.355 18.4909 159.991 17.6636 160.864 17.1545C161.736 16.6273 162.764 16.3636 163.945 16.3636C165.364 16.3636 166.427 16.7727 167.136 17.5909C167.864 18.3909 168.227 19.5273 168.227 21V24.0545H163.318V22.5545C163.318 21.9182 163.173 21.4091 162.882 21.0273C162.609 20.6455 162.109 20.4545 161.382 20.4545C160.764 20.4545 160.164 20.6 159.582 20.8909C159 21.1636 158.518 21.6545 158.136 22.3636V33H152.682ZM177.32 30C177.883 30 178.429 29.9273 178.956 29.7818C179.483 29.6364 180.002 29.4455 180.511 29.2091V26.5364H177.238C176.674 26.5364 176.256 26.6636 175.983 26.9182C175.729 27.1545 175.602 27.6455 175.602 28.3909C175.602 28.9182 175.738 29.3182 176.011 29.5909C176.283 29.8636 176.72 30 177.32 30ZM175.874 33.2727C174.292 33.2727 173.029 32.8455 172.083 31.9909C171.156 31.1364 170.692 29.9727 170.692 28.5C170.692 26.9545 171.238 25.7909 172.329 25.0091C173.42 24.2091 174.92 23.8091 176.829 23.8091H180.511V21.9545C180.511 21.1909 180.311 20.6818 179.911 20.4273C179.511 20.1545 178.92 20.0182 178.138 20.0182C177.32 20.0182 176.711 20.1818 176.311 20.5091C175.929 20.8182 175.656 21.4 175.492 22.2545L171.102 21.5727C171.502 19.6273 172.229 18.2727 173.283 17.5091C174.356 16.7455 176.038 16.3636 178.329 16.3636C180.82 16.3636 182.665 16.8273 183.865 17.7545C185.083 18.6636 185.692 20.0545 185.692 21.9273V27.8182C185.692 28.5273 185.902 28.9636 186.32 29.1273C186.756 29.2727 187.365 29.3 188.147 29.2091V32.8636C186.62 33.2273 185.392 33.2182 184.465 32.8364C183.538 32.4545 182.892 31.6909 182.529 30.5455H181.711C181.129 31.2727 180.32 31.9091 179.283 32.4545C178.265 33 177.129 33.2727 175.874 33.2727ZM190.612 33V29.1818H195.521V20.4545H190.612V16.6364H200.976V29.1818H205.885V33H190.612ZM198.549 14.1818C197.512 14.1818 196.667 14.0273 196.012 13.7182C195.376 13.4091 195.058 12.8727 195.058 12.1091V11.7C195.058 10.9182 195.376 10.3636 196.012 10.0364C196.667 9.70909 197.512 9.54545 198.549 9.54545C199.585 9.54545 200.421 9.70909 201.058 10.0364C201.712 10.3636 202.039 10.9182 202.039 11.7V12.1091C202.039 12.8727 201.712 13.4091 201.058 13.7182C200.403 14.0273 199.567 14.1818 198.549 14.1818ZM209.441 33V16.6364H214.896V19.6364H215.714C216.15 18.6 216.832 17.8 217.759 17.2364C218.687 16.6545 219.759 16.3636 220.977 16.3636C222.341 16.3636 223.396 16.8 224.141 17.6727C224.887 18.5273 225.259 19.7364 225.259 21.3V33H219.805V22.2545C219.805 21.6727 219.659 21.2273 219.368 20.9182C219.096 20.6091 218.705 20.4545 218.196 20.4545C217.632 20.4545 217.05 20.6091 216.45 20.9182C215.85 21.2091 215.332 21.6545 214.896 22.2545V33H209.441ZM244.743 29.1273C244.015 30.7091 243.07 31.8 241.906 32.4C240.743 32.9818 238.961 33.2727 236.561 33.2727C234.306 33.2727 232.406 32.7545 230.861 31.7182C229.315 30.6818 228.543 29.1091 228.543 27V22.6636C228.543 20.7 229.243 19.1636 230.643 18.0545C232.043 16.9273 233.988 16.3636 236.479 16.3636C238.952 16.3636 240.879 16.9273 242.261 18.0545C243.661 19.1636 244.361 20.7182 244.361 22.7182V25.9091H233.997V27.3818C233.997 28.1455 234.197 28.7545 234.597 29.2091C235.015 29.6455 235.724 29.8636 236.724 29.8636C237.506 29.8636 238.179 29.7455 238.743 29.5091C239.324 29.2545 239.834 28.7364 240.27 27.9545L244.743 29.1273ZM233.997 22.1182V23.1818H238.906V22.3636C238.906 21.3455 238.743 20.6364 238.415 20.2364C238.088 19.8364 237.434 19.6364 236.452 19.6364C235.47 19.6364 234.815 19.8273 234.488 20.2091C234.161 20.5727 233.997 21.2091 233.997 22.1182ZM248.19 33V16.6364H253.644V19.6364H254.462C254.862 18.4909 255.499 17.6636 256.371 17.1545C257.244 16.6273 258.271 16.3636 259.453 16.3636C260.871 16.3636 261.935 16.7727 262.644 17.5909C263.371 18.3909 263.735 19.5273 263.735 21V24.0545H258.826V22.5545C258.826 21.9182 258.681 21.4091 258.39 21.0273C258.117 20.6455 257.617 20.4545 256.89 20.4545C256.271 20.4545 255.671 20.6 255.09 20.8909C254.508 21.1636 254.026 21.6545 253.644 22.3636V33H248.19Z" fill="#1C1C1C"/>
<mask id="mask0_499_256" style="mask-type:alpha" maskUnits="userSpaceOnUse" x="36" y="9" width="228" height="30">
<path d="M41.2088 38.7818C40.5906 38.7818 39.927 38.7545 39.2179 38.7C38.5088 38.6455 37.7361 38.5636 36.8997 38.4545L37.1724 34.6364C37.9543 34.7636 38.6452 34.8636 39.2452 34.9364C39.8634 35.0273 40.3997 35.0727 40.8543 35.0727C41.9088 35.0727 42.6724 34.8727 43.1452 34.4727C43.6361 34.0727 44.0543 33.2727 44.3997 32.0727L44.4543 31.9091H40.9906L36.5452 16.6364H42.0815L45.3815 28.7455L48.9815 16.6364H54.2997L49.2543 32.5636C48.527 34.8909 47.5724 36.5091 46.3906 37.4182C45.2088 38.3273 43.4815 38.7818 41.2088 38.7818ZM64.6467 29.3727C65.4104 29.3727 65.9922 29.1909 66.3922 28.8273C66.7922 28.4636 66.9922 27.8545 66.9922 27V22.8818C66.9922 22.0455 66.8104 21.4364 66.4467 21.0545C66.1013 20.6545 65.6467 20.4545 65.0831 20.4545C64.574 20.4545 64.074 20.5727 63.5831 20.8091C63.1104 21.0273 62.6104 21.3636 62.0831 21.8182V28.6636C62.5376 28.9 62.9467 29.0818 63.3104 29.2091C63.6922 29.3182 64.1376 29.3727 64.6467 29.3727ZM65.6831 33.1636C65.0649 33.1636 64.4376 33.1091 63.8013 33C63.1649 32.8909 62.5922 32.7364 62.0831 32.5364V38.4545H56.6286V16.6364H62.0831V19.6364H62.9013C63.3013 18.6364 63.9376 17.8455 64.8104 17.2636C65.7013 16.6636 66.7104 16.3636 67.8376 16.3636C69.2558 16.3636 70.374 16.8545 71.1922 17.8364C72.0286 18.8182 72.4467 20.1455 72.4467 21.8182V27.0273C72.4467 28.9182 71.8376 30.4182 70.6195 31.5273C69.4013 32.6182 67.7558 33.1636 65.6831 33.1636ZM76.0028 33V29.1818H80.9119V20.4545H76.0028V16.6364H86.3665V29.1818H91.2756V33H76.0028ZM83.9392 14.1818C82.9028 14.1818 82.0574 14.0273 81.4028 13.7182C80.7665 13.4091 80.4483 12.8727 80.4483 12.1091V11.7C80.4483 10.9182 80.7665 10.3636 81.4028 10.0364C82.0574 9.70909 82.9028 9.54545 83.9392 9.54545C84.9756 9.54545 85.8119 9.70909 86.4483 10.0364C87.1028 10.3636 87.4301 10.9182 87.4301 11.7V12.1091C87.4301 12.8727 87.1028 13.4091 86.4483 13.7182C85.7937 14.0273 84.9574 14.1818 83.9392 14.1818ZM94.8317 33V16.6364H100.286V19.6364H101.104C101.541 18.6 102.223 17.8 103.15 17.2364C104.077 16.6545 105.15 16.3636 106.368 16.3636C107.732 16.3636 108.786 16.8 109.532 17.6727C110.277 18.5273 110.65 19.7364 110.65 21.3V33H105.195V22.2545C105.195 21.6727 105.05 21.2273 104.759 20.9182C104.486 20.6091 104.095 20.4545 103.586 20.4545C103.023 20.4545 102.441 20.6091 101.841 20.9182C101.241 21.2091 100.723 21.6545 100.286 22.2545V33H94.8317ZM130.57 33.7091C130.57 35.2 129.997 36.4091 128.851 37.3364C127.724 38.2636 126.188 38.7273 124.242 38.7273H119.551C117.388 38.7273 115.77 38.3455 114.697 37.5818C113.642 36.8364 113.115 35.9455 113.115 34.9091C113.115 33.9818 113.406 33.2455 113.988 32.7C114.57 32.1364 115.279 31.8091 116.115 31.7182V31.1727C115.442 30.9545 114.87 30.6364 114.397 30.2182C113.942 29.8 113.715 29.1545 113.715 28.2818C113.715 27.2636 114.079 26.4455 114.806 25.8273C115.533 25.1909 116.415 24.8091 117.451 24.6818V24.1364C116.506 23.9 115.77 23.5182 115.242 22.9909C114.733 22.4636 114.479 21.7909 114.479 20.9727V20.9182C114.479 19.5182 115.088 18.4545 116.306 17.7273C117.542 17 119.033 16.6364 120.779 16.6364H130.57V19.6364L126.097 19.1455V19.6909C126.77 19.8727 127.324 20.2182 127.761 20.7273C128.197 21.2182 128.415 21.7818 128.415 22.4182V22.5273C128.415 23.8727 127.797 24.9091 126.561 25.6364C125.324 26.3455 123.806 26.7 122.006 26.7H119.606C119.006 26.7 118.533 26.8 118.188 27C117.842 27.2 117.67 27.5273 117.67 27.9818C117.67 28.4364 117.842 28.7636 118.188 28.9636C118.533 29.1636 119.006 29.2636 119.606 29.2636H124.406C126.297 29.2636 127.797 29.6364 128.906 30.3818C130.015 31.1091 130.57 32.2182 130.57 33.7091ZM121.433 24.2455C122.161 24.2455 122.679 24.0909 122.988 23.7818C123.315 23.4727 123.479 23.0636 123.479 22.5545V21.1909C123.479 20.7364 123.315 20.3545 122.988 20.0455C122.679 19.7364 122.161 19.5818 121.433 19.5818C120.706 19.5818 120.179 19.7364 119.851 20.0455C119.542 20.3545 119.388 20.7364 119.388 21.1909V22.5545C119.388 23.0636 119.542 23.4727 119.851 23.7818C120.161 24.0909 120.688 24.2455 121.433 24.2455ZM119.606 35.7273H124.188C124.77 35.7273 125.251 35.6455 125.633 35.4818C126.015 35.3182 126.206 34.9364 126.206 34.3364C126.206 33.7364 126.015 33.3545 125.633 33.1909C125.251 33.0455 124.77 32.9727 124.188 32.9727H118.242V34.2273C118.242 34.7 118.351 35.0636 118.57 35.3182C118.806 35.5909 119.151 35.7273 119.606 35.7273ZM138.217 33V15.2727H132.217V11.1818H149.671V15.2727H143.671V33H138.217ZM152.682 33V16.6364H158.136V19.6364H158.955C159.355 18.4909 159.991 17.6636 160.864 17.1545C161.736 16.6273 162.764 16.3636 163.945 16.3636C165.364 16.3636 166.427 16.7727 167.136 17.5909C167.864 18.3909 168.227 19.5273 168.227 21V24.0545H163.318V22.5545C163.318 21.9182 163.173 21.4091 162.882 21.0273C162.609 20.6455 162.109 20.4545 161.382 20.4545C160.764 20.4545 160.164 20.6 159.582 20.8909C159 21.1636 158.518 21.6545 158.136 22.3636V33H152.682ZM177.32 30C177.883 30 178.429 29.9273 178.956 29.7818C179.483 29.6364 180.002 29.4455 180.511 29.2091V26.5364H177.238C176.674 26.5364 176.256 26.6636 175.983 26.9182C175.729 27.1545 175.602 27.6455 175.602 28.3909C175.602 28.9182 175.738 29.3182 176.011 29.5909C176.283 29.8636 176.72 30 177.32 30ZM175.874 33.2727C174.292 33.2727 173.029 32.8455 172.083 31.9909C171.156 31.1364 170.692 29.9727 170.692 28.5C170.692 26.9545 171.238 25.7909 172.329 25.0091C173.42 24.2091 174.92 23.8091 176.829 23.8091H180.511V21.9545C180.511 21.1909 180.311 20.6818 179.911 20.4273C179.511 20.1545 178.92 20.0182 178.138 20.0182C177.32 20.0182 176.711 20.1818 176.311 20.5091C175.929 20.8182 175.656 21.4 175.492 22.2545L171.102 21.5727C171.502 19.6273 172.229 18.2727 173.283 17.5091C174.356 16.7455 176.038 16.3636 178.329 16.3636C180.82 16.3636 182.665 16.8273 183.865 17.7545C185.083 18.6636 185.692 20.0545 185.692 21.9273V27.8182C185.692 28.5273 185.902 28.9636 186.32 29.1273C186.756 29.2727 187.365 29.3 188.147 29.2091V32.8636C186.62 33.2273 185.392 33.2182 184.465 32.8364C183.538 32.4545 182.892 31.6909 182.529 30.5455H181.711C181.129 31.2727 180.32 31.9091 179.283 32.4545C178.265 33 177.129 33.2727 175.874 33.2727ZM190.612 33V29.1818H195.521V20.4545H190.612V16.6364H200.976V29.1818H205.885V33H190.612ZM198.549 14.1818C197.512 14.1818 196.667 14.0273 196.012 13.7182C195.376 13.4091 195.058 12.8727 195.058 12.1091V11.7C195.058 10.9182 195.376 10.3636 196.012 10.0364C196.667 9.70909 197.512 9.54545 198.549 9.54545C199.585 9.54545 200.421 9.70909 201.058 10.0364C201.712 10.3636 202.039 10.9182 202.039 11.7V12.1091C202.039 12.8727 201.712 13.4091 201.058 13.7182C200.403 14.0273 199.567 14.1818 198.549 14.1818ZM209.441 33V16.6364H214.896V19.6364H215.714C216.15 18.6 216.832 17.8 217.759 17.2364C218.687 16.6545 219.759 16.3636 220.977 16.3636C222.341 16.3636 223.396 16.8 224.141 17.6727C224.887 18.5273 225.259 19.7364 225.259 21.3V33H219.805V22.2545C219.805 21.6727 219.659 21.2273 219.368 20.9182C219.096 20.6091 218.705 20.4545 218.196 20.4545C217.632 20.4545 217.05 20.6091 216.45 20.9182C215.85 21.2091 215.332 21.6545 214.896 22.2545V33H209.441ZM244.743 29.1273C244.015 30.7091 243.07 31.8 241.906 32.4C240.743 32.9818 238.961 33.2727 236.561 33.2727C234.306 33.2727 232.406 32.7545 230.861 31.7182C229.315 30.6818 228.543 29.1091 228.543 27V22.6636C228.543 20.7 229.243 19.1636 230.643 18.0545C232.043 16.9273 233.988 16.3636 236.479 16.3636C238.952 16.3636 240.879 16.9273 242.261 18.0545C243.661 19.1636 244.361 20.7182 244.361 22.7182V25.9091H233.997V27.3818C233.997 28.1455 234.197 28.7545 234.597 29.2091C235.015 29.6455 235.724 29.8636 236.724 29.8636C237.506 29.8636 238.179 29.7455 238.743 29.5091C239.324 29.2545 239.834 28.7364 240.27 27.9545L244.743 29.1273ZM233.997 22.1182V23.1818H238.906V22.3636C238.906 21.3455 238.743 20.6364 238.415 20.2364C238.088 19.8364 237.434 19.6364 236.452 19.6364C235.47 19.6364 234.815 19.8273 234.488 20.2091C234.161 20.5727 233.997 21.2091 233.997 22.1182ZM248.19 33V16.6364H253.644V19.6364H254.462C254.862 18.4909 255.499 17.6636 256.371 17.1545C257.244 16.6273 258.271 16.3636 259.453 16.3636C260.871 16.3636 261.935 16.7727 262.644 17.5909C263.371 18.3909 263.735 19.5273 263.735 21V24.0545H258.826V22.5545C258.826 21.9182 258.681 21.4091 258.39 21.0273C258.117 20.6455 257.617 20.4545 256.89 20.4545C256.271 20.4545 255.671 20.6 255.09 20.8909C254.508 21.1636 254.026 21.6545 253.644 22.3636V33H248.19Z" fill="white"/>
</mask>
<g mask="url(#mask0_499_256)">
<path d="M4.5 -1H48.5367V43.0367H4.5V-1Z" fill="white"/>
</g>
</svg>
