<svg width="48" height="48" viewBox="0 0 48 48" fill="none" xmlns="http://www.w3.org/2000/svg">
<rect width="48" height="48" rx="10" fill="#1C1C1C"/>
<path d="M23.8874 27.2839C22.8591 27.2839 22.0154 26.4697 21.9789 25.4421L21.5036 12.071C21.4634 10.9393 22.37 10 23.5024 10H24.2724C25.4048 10 26.3113 10.9393 26.2711 12.071L25.7958 25.4421C25.7593 26.4697 24.9157 27.2839 23.8874 27.2839ZM24.0102 38C23.0273 38 22.2765 37.7695 21.7577 37.3086C21.2526 36.8247 21 36.0872 21 35.0963V34.1284C21 33.1144 21.2526 32.3654 21.7577 31.8815C22.2765 31.3975 23.0273 31.1556 24.0102 31.1556C24.9932 31.1556 25.7372 31.3975 26.2423 31.8815C26.7474 32.3654 27 33.1144 27 34.1284V35.0963C27 36.0872 26.7406 36.8247 26.2218 37.3086C25.7167 37.7695 24.9795 38 24.0102 38Z" fill="white"/>
</svg>
