<svg width="22" height="28" viewBox="0 0 22 28" fill="none" xmlns="http://www.w3.org/2000/svg">
<path fill-rule="evenodd" clip-rule="evenodd" d="M11.0004 2.33322C6.49035 2.33322 2.83419 5.98937 2.83419 10.4995C2.83419 12.5715 3.6044 14.4609 4.87586 15.9012C6.37391 17.5982 8.56179 18.6657 11.0004 18.6657C13.4393 18.6657 15.6274 17.5981 17.1254 15.9008C18.3967 14.4605 19.1667 12.5713 19.1667 10.4995C19.1667 5.98937 15.5105 2.33322 11.0004 2.33322ZM0.500977 10.4995C0.500977 4.70077 5.20175 0 11.0004 0C16.7991 0 21.4999 4.70077 21.4999 10.4995C21.4999 12.9989 20.6252 15.2965 19.1667 17.0993C19.1667 17.167 19.1667 17.236 19.1667 17.3061L19.1667 23.8611C19.1668 24.6983 19.1669 25.4557 19.0812 26.0312C18.9946 26.6128 18.7591 27.4497 17.8943 27.8364C17.0441 28.2167 16.2627 27.8555 15.7623 27.5471C15.2614 27.2384 14.6731 26.7481 14.017 26.2011L12.8565 25.2338C12.2126 24.697 11.8109 24.365 11.4832 24.1545C11.1834 23.962 11.0638 23.9512 11.0004 23.9512C10.9371 23.9512 10.8175 23.962 10.5177 24.1545C10.19 24.365 9.78829 24.697 9.14435 25.2338L7.98387 26.2011C7.32776 26.748 6.73954 27.2384 6.2386 27.5471C5.73817 27.8555 4.95677 28.2167 4.10661 27.8364C3.24179 27.4497 3.00626 26.6128 2.91967 26.0312C2.83399 25.4557 2.83408 24.6983 2.83418 23.8611L2.83419 17.3061C2.83419 17.2362 2.83419 17.1668 2.83421 17.0993C1.37566 15.2965 0.500977 12.9989 0.500977 10.4995ZM5.16741 19.2307V23.7739C5.16741 24.5398 5.16945 25.0639 5.19978 25.4384C5.51942 25.2151 5.93951 24.8676 6.55528 24.3544L7.70128 23.3992C8.27874 22.9178 8.79219 22.4897 9.25687 22.1913C9.76316 21.8661 10.324 21.618 11.0004 21.618C11.6769 21.618 12.2377 21.8661 12.744 22.1913C13.2087 22.4897 13.7221 22.9178 14.2996 23.3991L15.4456 24.3544C16.0614 24.8676 16.4815 25.2151 16.8011 25.4384C16.8314 25.0639 16.8335 24.5398 16.8335 23.7739V19.2307C15.1654 20.347 13.1587 20.9989 11.0004 20.9989C8.84218 20.9989 6.83548 20.347 5.16741 19.2307Z" fill="white"/>
</svg>
