<svg width="26" height="28" viewBox="0 0 26 28" fill="none" xmlns="http://www.w3.org/2000/svg">
<path fill-rule="evenodd" clip-rule="evenodd" d="M8.58689 3.33018C9.85408 -1.11006 16.1468 -1.11006 17.414 3.33018C17.736 4.45879 18.8955 5.12823 20.034 4.84286C24.5129 3.72015 27.6593 9.16979 24.4475 12.4873C23.6312 13.3306 23.6312 14.6694 24.4475 15.5127C27.6593 18.8302 24.5129 24.2798 20.034 23.1571C18.8955 22.8718 17.736 23.5412 17.414 24.6698C16.1468 29.1101 9.85408 29.1101 8.58689 24.6698C8.2648 23.5412 7.1053 22.8718 5.96686 23.1571C1.4879 24.2798 -1.65845 18.8302 1.55332 15.5127C2.36968 14.6694 2.36968 13.3306 1.55332 12.4873C-1.65845 9.16979 1.4879 3.72015 5.96686 4.84286C7.1053 5.12823 8.2648 4.45879 8.58689 3.33018ZM15.0917 3.99293C14.4913 1.88901 11.5096 1.88901 10.9092 3.99293C10.2294 6.3748 7.78232 7.78763 5.37967 7.18538C3.25741 6.65341 1.76658 9.2356 3.28841 10.8076C5.0113 12.5872 5.0113 15.4128 3.28841 17.1924C1.76658 18.7644 3.25741 21.3466 5.37967 20.8146C7.78232 20.2124 10.2294 21.6252 10.9092 24.0071C11.5096 26.111 14.4913 26.111 15.0917 24.0071C15.7714 21.6252 18.2185 20.2124 20.6212 20.8146C22.7434 21.3466 24.2343 18.7644 22.7124 17.1924C20.9895 15.4128 20.9895 12.5872 22.7124 10.8076C24.2343 9.2356 22.7434 6.65341 20.6212 7.18538C18.2185 7.78763 15.7714 6.3748 15.0917 3.99293ZM8.17044 14C8.17044 11.3325 10.3329 9.17002 13.0004 9.17002C15.6679 9.17002 17.8304 11.3325 17.8304 14C17.8304 16.6675 15.6679 18.83 13.0004 18.83C10.3329 18.83 8.17044 16.6675 8.17044 14ZM13.0004 11.585C11.6667 11.585 10.5854 12.6662 10.5854 14C10.5854 15.3338 11.6667 16.415 13.0004 16.415C14.3342 16.415 15.4154 15.3338 15.4154 14C15.4154 12.6662 14.3342 11.585 13.0004 11.585Z" fill="white"/>
</svg>
