<svg width="48" height="48" viewBox="0 0 48 48" fill="none" xmlns="http://www.w3.org/2000/svg">
<rect width="48" height="48" rx="10" fill="#1C1C1C"/>
<path d="M25.5556 15.7037C25.5556 14.8446 24.8591 14.1482 24 14.1482C23.1409 14.1482 22.4444 14.8446 22.4444 15.7037L22.4444 32.2963C22.4444 33.1555 23.1409 33.8519 24 33.8519C24.8591 33.8519 25.5556 33.1555 25.5556 32.2963L25.5556 15.7037Z" fill="white"/>
<path d="M19.3333 17.7778C19.3333 16.9187 18.6369 16.2223 17.7778 16.2223C16.9187 16.2223 16.2222 16.9187 16.2222 17.7778L16.2222 30.2223C16.2222 31.0814 16.9187 31.7778 17.7778 31.7778C18.6369 31.7778 19.3333 31.0814 19.3333 30.2223V17.7778Z" fill="white"/>
<path d="M31.7778 17.7778C31.7778 16.9187 31.0813 16.2223 30.2222 16.2223C29.3631 16.2223 28.6667 16.9187 28.6667 17.7778V30.2223C28.6667 31.0814 29.3631 31.7778 30.2222 31.7778C31.0813 31.7778 31.7778 31.0814 31.7778 30.2223V17.7778Z" fill="white"/>
<path d="M13.1111 21.926C13.1111 21.0669 12.4147 20.3704 11.5556 20.3704C10.6964 20.3704 10 21.0669 10 21.926V26.0741C10 26.9332 10.6964 27.6297 11.5556 27.6297C12.4147 27.6297 13.1111 26.9332 13.1111 26.0741V21.926Z" fill="white"/>
<path d="M38 21.926C38 21.0669 37.3036 20.3704 36.4444 20.3704C35.5853 20.3704 34.8889 21.0669 34.8889 21.926V26.0741C34.8889 26.9332 35.5853 27.6297 36.4444 27.6297C37.3036 27.6297 38 26.9332 38 26.0741V21.926Z" fill="white"/>
</svg>
