<svg width="48" height="48" viewBox="0 0 48 48" fill="none" xmlns="http://www.w3.org/2000/svg">
<rect width="48" height="48" rx="10" fill="#1C1C1C"/>
<path d="M25.4933 17.2942C25.4933 16.6373 24.9607 16.1047 24.3038 16.1047C23.6469 16.1047 23.1143 16.6373 23.1143 17.2942V23.9646C23.1143 24.4702 22.9212 24.9566 22.5743 25.3245L20.2664 27.7724C19.8157 28.2504 19.8379 29.0032 20.3159 29.4539C20.7939 29.9045 21.5467 29.8824 21.9973 29.4044L24.3053 26.9565C25.0683 26.1471 25.4933 25.0769 25.4933 23.9646V17.2942Z" fill="white"/>
<path fill-rule="evenodd" clip-rule="evenodd" d="M24 35C30.0751 35 35 30.0751 35 24C35 17.9249 30.0751 13 24 13C17.9249 13 13 17.9249 13 24C13 30.0751 17.9249 35 24 35ZM24 38C31.732 38 38 31.732 38 24C38 16.268 31.732 10 24 10C16.268 10 10 16.268 10 24C10 31.732 16.268 38 24 38Z" fill="white"/>
</svg>
